# Generated by scripts.build_simple_convex_collision
v 0.03443172202 0.01098705269 -0.1623375416
v -0.006929513533 0.02700752579 -0.1444501728
v -0.01849337667 0.0006181670469 -0.1260010451
v -0.0303146895 -0.01386744436 -0.1614778489
v 0.007922837511 -0.03529082984 -0.1623435467
v 0.01583797298 -0.008455893956 -0.1889983416
v 0.03112933785 0.004959238227 -0.1310010403
v 0.01153959613 -0.02941798978 -0.1310010403
v -0.00299031008 0.01214237977 -0.1868801415
v 0.00187687017 0.01840439066 -0.1260010451
v 0.005018903408 0.02641463093 -0.1692418456
v -0.01468133368 -0.008690780029 -0.1840073466
v 0.01281729806 -0.02656900138 -0.1829327494
v 0.0301471632 0.004312453791 -0.1815172434
v -0.02649595588 -0.008370312862 -0.1350010484
v -0.007420174778 0.0268687997 -0.1350010484
v -0.01116686594 -0.01474972349 -0.1260010451
v 0.02191221341 -0.01107724104 -0.1886032522
v -0.00825603772 0.01604100876 -0.1791202426
v 0.01671621203 -0.007933016866 -0.1260010451
v -0.012168332 0.0139326537 -0.1260010451
v -0.01584252343 0.002522051334 -0.1810061485
v 0.001575804432 0.02027910016 -0.1810175478
v -0.00967632141 0.0002280470653 -0.1881097406
v -0.01843705028 -0.01538338792 -0.1760998517
v 0.008605207317 -0.03319619969 -0.1728188396
v 0.03299864009 0.00982283894 -0.1728087515
v 0.0253608115 -0.003338066163 -0.1872744411
v 0.007561855949 0.02583763935 -0.1582475007
v 0.01706447639 -0.01812195964 -0.1879520416
v 0.01473117154 0.01119089313 -0.1260010451
v -0.004342681263 0.02301452868 -0.1703685522
v -0.02956297062 -0.01310004853 -0.1651178449
v -0.01671626046 0.007933034562 -0.1260010451
v 0.0006450182409 -0.01848753355 -0.1260010451
v 0.00905352924 0.01613325067 -0.1260010451
v -0.02937351726 -0.01402935013 -0.1550594121
v -0.01611615345 -0.009081603028 -0.1260010451
v 0.03358607739 0.01131918561 -0.1559253037
v -0.02978939563 -0.01477043424 -0.1634982526
v -0.01195445284 0.009450511076 -0.1816560477
v -0.005610852968 0.01762828231 -0.1260010451
v 0.003313307883 0.0233752951 -0.1767647415
v -0.005619316828 0.007457545027 -0.1882338524
v 0.01040982269 -0.03042996116 -0.1783674508
v 0.03372878209 0.01157348137 -0.1666363478
v 0.007837170735 -0.03456482664 -0.1559253037
v 0.00992564857 -0.03288659453 -0.1724181473
v -0.02666854486 -0.00716575142 -0.1350010484
v 0.01016282011 -0.01546294056 -0.1260010451
v 0.02791701816 -0.0006220121286 -0.1849493384
v 0.03092692606 0.005845012609 -0.1310010403
v 0.01792578027 -0.01842618734 -0.1874079406
v -0.0005564888124 0.01647939719 -0.1844391525
v 0.03286742792 0.008056479506 -0.1743914485
v -0.01676257886 -0.01239951607 -0.1804569513
v 0.02816430666 0.001657704706 -0.1842964441
v -0.00436623022 -0.01797700301 -0.1260010451
v 0.007898409851 -0.03490524739 -0.1666320413
v -0.005971301813 0.0201123599 -0.17535685
v -0.01228433847 -0.004419384524 -0.1865960509
v 0.0183979664 0.001909193583 -0.1260010451
v 0.03182136267 0.008174504153 -0.1766173393
v -0.02828140184 -0.01003982965 -0.1647701412
f 47 40 5
f 11 16 2
f 28 18 6
f 38 15 3
f 38 15 17
f 37 40 4
f 37 15 17
f 37 47 40
f 8 37 17
f 8 37 47
f 8 47 5
f 30 18 6
f 30 24 6
f 49 15 3
f 49 37 4
f 49 37 15
f 29 11 16
f 29 16 36
f 46 29 11
f 27 46 11
f 27 55 1
f 27 46 1
f 32 11 2
f 51 14 55
f 51 28 18
f 53 30 18
f 53 30 13
f 53 51 18
f 53 51 55
f 59 40 5
f 59 26 40
f 34 49 3
f 34 49 16
f 10 16 36
f 10 42 16
f 57 14 23
f 57 51 28
f 57 51 14
f 63 14 23
f 63 27 55
f 63 14 55
f 25 26 40
f 61 30 24
f 61 22 24
f 60 19 2
f 60 32 2
f 60 19 23
f 43 32 11
f 43 63 23
f 43 60 23
f 43 60 32
f 43 27 11
f 43 63 27
f 64 19 2
f 64 16 2
f 64 49 4
f 64 49 16
f 41 9 19
f 41 64 19
f 41 64 22
f 41 22 24
f 48 59 26
f 48 59 5
f 48 53 13
f 48 8 5
f 48 53 55
f 21 42 16
f 21 34 16
f 54 9 28
f 54 57 28
f 54 57 23
f 54 19 23
f 54 9 19
f 45 56 13
f 45 25 56
f 45 25 26
f 45 48 13
f 45 48 26
f 33 61 22
f 33 64 22
f 33 40 4
f 33 64 4
f 33 25 40
f 33 25 56
f 44 41 24
f 44 41 9
f 44 24 6
f 44 28 6
f 44 9 28
f 58 8 17
f 58 35 8
f 50 20 8
f 50 35 8
f 39 29 36
f 39 52 36
f 39 46 1
f 39 46 29
f 7 20 8
f 7 62 20
f 7 62 52
f 7 48 8
f 7 39 1
f 7 39 52
f 7 55 1
f 7 48 55
f 12 33 56
f 12 33 61
f 12 56 13
f 12 30 13
f 12 61 30
f 31 52 36
f 31 62 52
f 31 10 36
f 31 38 3
f 31 38 17
f 31 34 3
f 31 50 20
f 31 21 42
f 31 10 42
f 31 58 17
f 31 21 34
f 31 58 35
f 31 50 35
f 31 62 20
