# Generated by scripts.build_simple_convex_collision
v 0.03443259001 0.01098650694 0.1623380035
v 0.005300616845 0.02734057046 0.1602810025
v 0.01583799347 -0.008455906063 0.1889979988
v -0.03031551465 -0.01386692468 0.1614779979
v 0.007926234975 -0.03529279307 0.1623439938
v -0.01848975383 0.0006161912461 0.1260010004
v 0.03111589141 0.004925214685 0.1310009956
v 0.01153706387 -0.02941662632 0.1310009956
v -0.004947390873 0.009063529782 0.1879279912
v -0.006843626034 0.02700502239 0.1350010037
v -0.01485956833 -0.008599761873 0.1840019971
v 0.01282069646 -0.02657096647 0.1829330027
v 0.03015060909 0.00431057578 0.181517005
v 0.004365151748 0.01797766797 0.1260010004
v -0.02649486437 -0.008370869793 0.1350010037
v 0.002478273585 0.022295909 0.1786009967
v -0.008143999614 0.01664928533 0.1787659973
v -0.01116606686 -0.01475023013 0.1260010004
v 0.02177885361 -0.01099514589 0.1887609959
v 0.01671353169 -0.00793151278 0.1260010004
v -0.01216988079 0.0139335217 0.1260010004
v -0.01545548066 0.003620378906 0.1813039929
v -0.01886849105 -0.01574357972 0.1752270013
v 0.009271249175 -0.03246403486 0.1747470051
v 0.03281803802 0.009950503707 0.1728190035
v -0.004214552231 0.02365147881 0.168889001
v -0.01009809691 -0.0001149204254 0.1880169958
v 0.0172619056 -0.01822485216 0.1879279912
v 0.02536083199 -0.003338079201 0.1872739941
v -0.007648849394 0.0266715195 0.1445149928
v 0.005611282308 -0.01762848906 0.1260010004
v -0.000839641667 0.01638345234 0.1845770031
v -0.02956602722 -0.01309839264 0.165117994
v 0.01720447652 0.006801215466 0.1260010004
v -0.01671353169 0.00793151278 0.1260010004
v 0.006800571457 0.02488967404 0.1706939936
v -0.003158515319 0.01822839305 0.1260010004
v -0.02937352099 -0.01402940601 0.1550589949
v 0.03358607367 0.0113191288 0.1559250057
v -0.01611816138 -0.00908053387 0.1260010004
v 0.01116606686 0.01475023013 0.1260010004
v -0.02978934906 -0.0147704035 0.1634979993
v -0.02630463988 -0.005904314108 0.1385419965
v 0.003616620321 0.02446077392 0.1748480052
v -0.001876520459 -0.01840457506 0.1260010004
v -0.01167620998 0.01035496034 0.1815209985
v 0.03372877836 0.01157342456 0.166636005
v 0.008123011328 -0.03451016918 0.1687379926
v 0.008043192327 -0.03465240449 0.1559309959
v 0.02702147327 -0.002370952861 0.1857319921
v -0.017110385 -0.01261067018 0.1800850034
v 0.03289842606 0.008252657019 0.1744910032
v 0.03092871606 0.005844064523 0.1310009956
v 0.01077197026 -0.03132722899 0.176195994
v -0.02666854672 -0.007165807765 0.1350010037
v -0.005396606401 0.02154508233 0.1734589934
v 0.01610217616 -0.0218289122 0.1857319921
v 0.01415362675 -0.02330908552 0.1854410022
v -0.007778189145 0.0264964141 0.1350010037
v 0.02816430293 0.001657648128 0.184295997
v 0.03121506423 0.007094040513 0.1783829927
v 0.0108816158 -0.02913974039 0.180042997
v -0.01223300304 -0.003919279203 0.1867759973
v 0.008867538534 -0.0347208865 0.1581580043
f 42 49 5
f 38 42 4
f 38 42 49
f 15 38 18
f 10 39 2
f 8 38 18
f 8 38 49
f 48 42 5
f 48 54 5
f 40 15 6
f 40 15 18
f 64 54 5
f 64 49 5
f 64 8 49
f 51 42 23
f 22 27 46
f 22 27 63
f 57 50 19
f 57 50 54
f 52 50 1
f 52 50 13
f 29 19 3
f 29 50 19
f 24 48 54
f 24 42 23
f 24 48 42
f 61 52 13
f 61 52 25
f 47 36 25
f 47 52 1
f 47 52 25
f 47 36 2
f 47 39 1
f 47 39 2
f 14 10 41
f 14 37 10
f 55 15 6
f 55 59 43
f 55 43 4
f 55 38 4
f 55 15 38
f 21 37 10
f 21 59 10
f 30 43 4
f 30 59 43
f 30 59 10
f 30 10 2
f 31 20 8
f 53 10 41
f 53 10 39
f 33 22 63
f 33 51 42
f 33 42 4
f 33 22 46
f 33 30 4
f 11 58 63
f 11 33 63
f 11 33 51
f 28 57 19
f 28 57 58
f 28 19 3
f 28 27 3
f 28 27 63
f 28 58 63
f 12 57 54
f 12 57 58
f 12 11 51
f 12 11 58
f 9 27 3
f 9 29 3
f 9 27 46
f 35 55 6
f 35 55 59
f 35 21 59
f 26 30 2
f 26 30 56
f 45 8 18
f 45 31 8
f 34 53 41
f 7 20 8
f 7 34 20
f 7 34 53
f 7 64 8
f 7 39 1
f 7 53 39
f 7 50 1
f 7 50 54
f 7 64 54
f 62 12 51
f 62 51 23
f 62 24 23
f 62 24 54
f 62 12 54
f 17 9 46
f 17 30 56
f 17 33 46
f 17 33 30
f 44 36 25
f 44 61 25
f 44 26 56
f 44 36 2
f 44 26 2
f 32 9 29
f 32 17 9
f 60 32 13
f 60 32 29
f 60 50 13
f 60 29 50
f 16 32 13
f 16 61 13
f 16 44 61
f 16 44 56
f 16 17 56
f 16 32 17
f 34 14 41
f 34 40 6
f 34 40 18
f 34 35 6
f 34 45 18
f 34 14 37
f 34 21 37
f 34 31 20
f 34 35 21
f 34 45 31
