# Generated by scripts.build_simple_convex_collision
v 0.03031551465 -0.01386692468 -0.1614779979
v -0.005300616845 0.02734057046 -0.1602810025
v -0.01848975383 -0.0006161912461 -0.1260010004
v -0.03443259001 0.01098650694 -0.1623380035
v -0.007926234975 -0.03529279307 -0.1623439938
v -0.01583799347 -0.008455906063 -0.1889979988
v 0.01395387203 0.01214664988 -0.1260010004
v -0.01101946272 -0.02942292765 -0.1310009956
v 0.004947390407 0.009063529782 -0.1879279912
v 0.02665631846 -0.008165711537 -0.1350010037
v -0.03108315915 0.005584931932 -0.1310009956
v 0.006843626034 0.02700502239 -0.1350010037
v 0.01485956833 -0.008599761873 -0.1840019971
v -0.01261363365 -0.02650797553 -0.1829899997
v -0.02935937606 0.00290061417 -0.1829330027
v -0.002478273585 0.022295909 -0.1786009967
v 0.01307056565 -0.01309241634 -0.1260010004
v -0.006772442721 0.01721581817 -0.1260010004
v 0.008143999614 0.01664928533 -0.1787659973
v -0.02073190734 -0.01286078058 -0.1887609959
v 0.01545548066 0.003620378906 -0.1813039929
v -0.03281803802 0.009950503707 -0.1728190035
v 0.01840139367 -0.001907280763 -0.1260010004
v -0.008605252951 -0.03319616988 -0.1728190035
v 0.004214552231 0.02365147881 -0.168889001
v 0.01886849105 -0.01574357972 -0.1752270013
v 0.01009809691 -0.0001149204254 -0.1880169958
v -0.003158515319 -0.01822839305 -0.1260010004
v 0.003158515086 0.01822839305 -0.1260010004
v -0.02454945631 -0.005238589365 -0.1879279912
v 0.0008396415506 0.01638345234 -0.1845770031
v 0.007714279462 0.0265549235 -0.144648999
v -0.006800571457 0.02488967404 -0.1706939936
v 0.02966017835 -0.01294269878 -0.1649869978
v -0.0162608102 -0.02000878379 -0.1872510016
v -0.01547785942 -0.01013345271 -0.1260010004
v 0.02937352099 -0.01402940601 -0.1550589949
v -0.03358607367 0.0113191288 -0.1559250057
v 0.01763788424 0.005581816658 -0.1260010004
v 0.02978934906 -0.0147704035 -0.1634979993
v -0.003616620554 0.02446077392 -0.1748480052
v -0.01473155431 0.01119066589 -0.1260010004
v 0.006772442255 -0.01721581817 -0.1260010004
v -0.01077197026 -0.03132722899 -0.176195994
v 0.01167620998 0.01035496034 -0.1815209985
v -0.03121506423 0.007094040513 -0.1783829927
v -0.03372877836 0.01157342456 -0.166636005
v -0.03287174925 0.008054112084 -0.1743910015
v -0.01020822581 -0.03033970669 -0.1783829927
v -0.01213853527 -0.02894332632 -0.1310009956
v 0.02699530497 -0.007135065738 -0.1398160011
v -0.008043192327 -0.03465240449 -0.1559309959
v 0.017110385 -0.01261067018 -0.1800850034
v 0.007959342562 0.01670023613 -0.1260010004
v 0.01611816138 -0.00908053387 -0.1260010004
v -0.01519261114 -0.02344973944 -0.1847659945
v 0.006196110509 0.02012038231 -0.1754689962
v -0.0260771364 -0.004053741228 -0.1865469962
v -0.008777296171 -0.03448711708 -0.1686509997
v -0.02726966329 6.341827248e-05 -0.1854410022
v 0.007778189145 0.0264964141 -0.1350010037
v 0.007890916429 0.003818229772 -0.1884959936
v 0.01223300304 -0.003919279203 -0.1867759973
v -0.03389516845 0.01186992787 -0.1601890028
f 11 50 4
f 38 11 4
f 42 11 3
f 60 58 30
f 31 60 30
f 52 50 5
f 52 8 50
f 36 11 3
f 36 11 50
f 2 38 12
f 48 50 4
f 48 58 50
f 59 50 5
f 21 63 34
f 32 34 19
f 32 34 1
f 32 2 12
f 32 2 25
f 9 31 19
f 9 31 30
f 9 6 62
f 9 6 30
f 28 8 50
f 28 36 50
f 64 38 4
f 64 2 38
f 15 60 58
f 15 48 58
f 15 31 60
f 15 16 31
f 47 48 4
f 47 64 4
f 47 2 33
f 47 64 2
f 13 34 53
f 13 63 34
f 45 34 19
f 45 21 34
f 45 9 19
f 45 21 62
f 45 9 62
f 27 21 62
f 27 21 63
f 27 6 62
f 40 34 53
f 40 26 53
f 40 34 1
f 40 26 24
f 40 59 24
f 40 59 5
f 40 52 5
f 57 31 19
f 57 16 31
f 57 32 19
f 57 32 25
f 41 2 25
f 41 57 25
f 41 57 16
f 41 2 33
f 51 32 1
f 51 10 1
f 43 10 17
f 43 28 8
f 22 41 33
f 22 47 33
f 22 47 48
f 44 59 24
f 44 59 50
f 35 13 63
f 35 27 63
f 61 32 12
f 61 51 32
f 37 43 8
f 37 43 10
f 37 10 1
f 37 40 1
f 37 52 8
f 37 40 52
f 18 29 12
f 18 42 11
f 18 38 12
f 18 38 11
f 55 10 17
f 55 23 10
f 39 23 10
f 39 51 10
f 39 61 7
f 39 61 51
f 46 41 16
f 46 22 41
f 46 15 16
f 46 15 48
f 46 22 48
f 20 27 6
f 20 35 27
f 20 6 30
f 20 58 30
f 14 13 53
f 14 35 13
f 54 61 7
f 54 29 12
f 54 61 12
f 56 14 44
f 56 14 35
f 56 20 35
f 56 20 58
f 56 58 50
f 56 44 50
f 49 14 53
f 49 26 53
f 49 26 24
f 49 44 24
f 49 14 44
f 54 36 3
f 54 42 3
f 54 43 17
f 54 18 42
f 54 28 36
f 54 43 28
f 54 39 7
f 54 55 17
f 54 18 29
f 54 55 23
f 54 39 23
