# Generated by scripts.build_simple_convex_collision
v 0.0303146895 -0.01386744436 0.1614778489
v 0.006929513533 0.02700752579 0.1444501728
v -0.01583797298 -0.008455893956 0.1889983416
v -0.03443172202 0.01098705269 0.1623375416
v -0.007922837511 -0.03529082984 0.1623435467
v -0.01849330962 -0.0006181821227 0.1260010451
v 0.01849337667 0.0006181670469 0.1260010451
v 0.001742096036 0.01436667051 0.185790047
v -0.01127864979 -0.02945387922 0.1310010403
v -0.00187687017 0.01840439066 0.1260010451
v -0.03112198971 0.005477426108 0.1310010403
v 0.01351606566 -0.006614295766 0.1854300499
v -0.01281729806 -0.02656900138 0.1829327494
v -0.0293559432 0.002902518259 0.1829327494
v -0.005018903408 0.02641463093 0.1692418456
v 0.02665636316 -0.008165742271 0.1350010484
v 0.007420174778 0.0268687997 0.1350010484
v 0.01116686594 -0.01474972349 0.1260010451
v 0.01293357927 0.007705727126 0.1817971468
v -0.02087145858 -0.01293184515 0.1886032522
v 0.01843705028 -0.01538338792 0.1760998517
v 0.005971301813 0.0201123599 0.17535685
v 0.012168332 0.0139326537 0.1260010451
v 0.006971304305 0.005048331339 0.1884824485
v -0.03299864009 0.00982283894 0.1728087515
v -0.008808318526 -0.03328380734 0.1728087515
v -0.002499073278 0.02192434482 0.1789842397
v -0.007955944166 -0.01669827104 0.1260010451
v -0.007561855949 0.02583763935 0.1582475007
v -0.02454725653 -0.005237350706 0.1879279464
v -0.01306944899 0.01309301052 0.1260010451
v 0.02965865284 -0.01294360962 0.1649873406
v -0.01625862718 -0.0200075116 0.187250942
v 0.01671626046 0.007933034562 0.1260010451
v -0.01548053697 -0.01013496611 0.1260010451
v 0.01611615345 -0.009081603028 0.1260010451
v 0.02937351726 -0.01402935013 0.1550594121
v -0.03358607739 0.01131918561 0.1559253037
v 0.02978939563 -0.01477043424 0.1634982526
v 0.001876932569 -0.01840439998 0.1260010451
v 0.009128590114 0.01448613871 0.1800388396
v -0.006771594286 0.01721623726 0.1260010451
v 0.00967632141 0.0002280470653 0.1881097406
v 0.01676257886 -0.01239951607 0.1804569513
v 0.01676956005 0.0008700905018 0.1803468466
v 0.005610852968 0.01762828231 0.1260010451
v -0.03121501952 0.007094010245 0.17838265
v -0.03372878209 0.01157348137 0.1666363478
v 0.003973481245 0.02367243543 0.168510139
v -0.0102082286 -0.03033965081 0.17838265
v -0.00992564857 -0.03288659453 0.1724181473
v -0.007837170735 -0.03456482664 0.1559253037
v -0.03237327933 0.007318954915 0.1763108522
v 0.004287457559 0.009830890223 0.1876977384
v -0.02700016461 -0.002255825093 0.1859232485
v -0.0040095523 0.02461598814 0.1743836403
v -0.0005535284872 0.01845742576 0.1828425527
v -0.02726966143 6.34661119e-05 0.1854407489
v -0.009186093695 -0.03420446441 0.1561503261
v -0.007898409851 -0.03490524739 0.1666320413
v -0.01609785855 -0.02182654478 0.1857319474
v -0.01808973216 -0.01629497483 0.1884641498
v -0.01213853806 -0.02894327044 0.1310010403
v -0.0288578216 0.01474520378 0.16099675
f 11 63 4
f 52 59 5
f 38 11 4
f 31 11 6
f 8 58 30
f 35 11 6
f 35 11 63
f 51 59 5
f 51 60 5
f 51 60 26
f 51 63 4
f 51 59 63
f 32 2 41
f 32 17 1
f 32 2 17
f 12 32 44
f 12 32 45
f 19 32 41
f 19 32 45
f 54 8 41
f 54 19 24
f 54 19 41
f 54 8 30
f 27 47 56
f 14 53 47
f 14 27 47
f 9 59 63
f 9 52 59
f 9 18 40
f 16 17 1
f 25 53 4
f 25 48 4
f 25 53 47
f 25 47 56
f 15 2 17
f 15 29 17
f 15 49 56
f 15 49 2
f 15 25 56
f 15 25 48
f 64 29 38
f 64 38 4
f 64 48 4
f 64 15 48
f 64 15 29
f 13 12 44
f 13 12 33
f 3 54 24
f 3 54 30
f 55 14 53
f 55 58 30
f 55 14 58
f 39 21 44
f 39 32 44
f 39 21 26
f 39 32 1
f 39 60 26
f 39 60 5
f 39 52 5
f 43 12 45
f 43 19 24
f 43 19 45
f 43 12 33
f 43 3 24
f 22 2 41
f 22 49 2
f 22 49 56
f 22 27 56
f 28 9 40
f 28 35 63
f 28 9 63
f 37 16 1
f 37 16 18
f 37 39 1
f 37 9 18
f 37 9 52
f 37 39 52
f 42 10 17
f 42 31 11
f 42 29 17
f 42 38 11
f 42 29 38
f 34 16 17
f 50 21 44
f 50 13 44
f 50 21 26
f 50 51 26
f 50 13 51
f 20 3 30
f 20 55 30
f 57 22 27
f 57 14 27
f 57 8 41
f 57 22 41
f 57 8 58
f 57 14 58
f 46 10 17
f 7 34 16
f 62 20 33
f 62 20 3
f 62 43 33
f 62 43 3
f 61 20 55
f 61 55 53
f 61 13 51
f 61 53 4
f 61 51 4
f 61 13 33
f 61 20 33
f 23 34 17
f 23 46 17
f 36 16 18
f 36 7 16
f 36 31 6
f 36 18 40
f 36 35 6
f 36 28 40
f 36 42 31
f 36 28 35
f 36 42 10
f 36 46 10
f 36 23 34
f 36 7 34
f 36 23 46
