# Generated by scripts.build_simple_convex_collision
v 0.03667840734 -0.03091284446 0.01875000075
v -0.0002319419 0.01849855483 0.02474999987
v -0.0003974518913 -0.08878514171 0.04622999951
v -0.02038099244 -0.08588544279 0.02611999959
v -1.880361422e-09 -0.1075000465 0.02675000019
v -0.0003974518913 -0.08878514171 0.007269999944
v 0.02988860756 0.009226155467 0.03629000112
v -0.017677892 0.002900055377 0.03615999967
v 0.02940830775 0.009355155751 0.01693999954
v 0.03374090791 -0.05390310287 0.03615999967
v 0.0158726275 -0.0963595435 0.01910999976
v -0.01773029193 0.005280855577 0.02474999987
v 0.01234025788 -0.09907724708 0.03700999916
v -0.01274849195 -0.09907724708 0.03649999946
v -0.002239101799 0.01777375489 0.03615999967
v -0.01191149186 -0.09907724708 0.01600000076
v 0.003129408229 -0.101508148 0.01303999964
v -0.01413449179 -0.08580614626 0.01205999963
v 0.0339346081 -0.05433762446 0.01775000058
v -0.0002637718862 -0.1025959477 0.03968000039
v 0.0363708064 -0.02162004448 0.03527000174
v -0.01211779192 0.01388855558 0.03527000174
v -0.01214819215 -0.08878514171 0.04197999835
v 0.01170472801 -0.1035891473 0.02627000026
v -0.01038739178 -0.1044812426 0.02590000071
v -0.01008329168 0.01551055536 0.02474999987
v 0.009802738205 -0.09342524409 0.01078999974
v -0.01738319173 -0.0963595435 0.02388999984
v 0.00863915775 -0.09190054238 0.04379000142
v -0.01843929105 -0.08633364737 0.03544000164
v -0.00442389166 -0.1052663475 0.01884000003
v 0.0174855087 -0.0963595435 0.02889999934
v -0.005987891927 -0.0963595435 0.04332000017
v -0.004617491737 -0.0963595435 0.009748999961
v 0.03481130674 -0.007764744572 0.01875000075
v 0.005934414919 -0.1052663475 0.0335999988
v -0.01463969145 -0.02999184467 0.01675000042
v 0.005934414919 -0.1052663475 0.01989999972
v -0.006208791863 -0.1052663475 0.0333499983
v 0.004905938171 0.01776695624 0.03527000174
v 0.002507198136 -0.0963595435 0.04419000074
v 0.009891537949 -0.1003326476 0.01532999985
v -0.01875639148 -0.08588544279 0.01875000075
v -0.01768919267 -0.09491484612 0.03116999939
v 0.002594798105 -0.09491484612 0.008702999912
v 0.03393330798 -0.003197544487 0.03474999964
v 0.03516150638 -0.02630034462 0.01682000048
v -0.01658809185 0.00819065515 0.03474999964
v -0.006865391973 -0.101508148 0.03901999816
v 0.006829964928 -0.1003326476 0.04021999985
v 0.03617180884 -0.04019684345 0.03527000174
v -0.01465449203 -0.1003326476 0.03040999919
v -0.005842192098 -0.101508148 0.01396000013
v -0.01400069147 0.01209265552 0.02474999987
v -0.007566691842 0.0168818552 0.03474999964
v -0.00662249187 -0.08878514171 0.04506999999
v -0.01016819198 -0.09491484612 0.01162
v -0.006579491775 -0.09035044163 0.008545000106
v -0.01118809171 0.01282295585 0.03668000177
v -0.01575679146 -0.09342524409 0.01662000082
v 0.00612882711 -0.1064964458 0.02600000054
v 0.03093210794 0.00824585557 0.01844999939
v 0.01267072838 -0.101508148 0.02064999938
v -0.0001559118828 -0.1059396416 0.03438999876
v 0.005831470247 -0.09035044163 0.008290999569
v -0.01430729218 -0.1003326476 0.02191000059
v 0.03458970785 -0.01712614484 0.03668000177
v -0.01487899199 -0.09342524409 0.03813000023
v 0.01337857824 -0.09342524409 0.03985999897
v 0.01409785822 -0.1003326476 0.03217000142
v 0.0158726275 -0.0963595435 0.03438999876
v 0.001289668144 -0.1052663475 0.01778000034
v 0.01592811756 -0.09907724708 0.02479000017
v -0.01027209219 -0.1025959477 0.01889999956
v -0.005990891717 -0.1064964458 0.02824999951
v 0.0125837177 -0.0963595435 0.0144199999
v 0.03382600844 -0.007935645059 0.01702000014
v -0.005369591992 0.01770355552 0.02474999987
v -0.01044559199 -0.09342524409 0.04230000079
v -0.01846219227 0.001181655447 0.03474999964
v 0.004335638136 -0.08878514171 0.04574999958
v 0.004924078006 0.01783265546 0.02474999987
v 0.0076360479 -0.09775004536 0.01169000007
v 0.03597270697 -0.04018014297 0.01775000058
v -0.01606279239 0.007931255735 0.03615999967
v 0.03617140651 -0.02163244411 0.01775000058
v -0.01141179167 -0.1025959477 0.03282999992
v -0.01849949174 0.0001392553968 0.02474999987
v -0.003419551998 -0.09342524409 0.04517000169
v 0.004657907877 0.01686875522 0.03647999838
v -0.003463751869 -0.1069333479 0.02362000011
v 0.03104130737 0.007969455793 0.03475999832
v -0.008901991881 0.01554585528 0.03615999967
v 0.002110128058 -0.1069333479 0.02259000018
v 0.01055437792 -0.1035891473 0.03183000162
v 0.03554490954 -0.0355145447 0.03647999838
v -0.001538011828 -0.1003326476 0.01171999983
v -0.0004926918773 0.0184934549 0.03474999964
v -0.00163407193 -0.09907724708 0.04270999879
v -0.01975979097 -0.08634114265 0.03175999969
v 0.003333308036 -0.1069333479 0.03002000041
v 0.03431580961 -0.05401552469 0.03474999964
v 0.009220317937 -0.0963595435 0.04176000133
v 0.03423410654 -0.007864844985 0.03615999967
v 0.004427677952 -0.1035891473 0.03759999946
v -0.009417992085 -0.09775004536 0.04077000171
v 0.00846793782 -0.1025959477 0.03652000055
v -0.005073691718 -0.08564954251 0.008069000207
v -0.001907151891 -0.09342524409 0.008116999641
v -0.0140166916 -0.101508148 0.02559999935
v -0.002278151922 -0.1069333479 0.03082000092
v -0.01617119275 -0.0963595435 0.01975999959
v -0.01694789156 -0.08634114265 0.01542000007
v -0.007623491809 -0.1052663475 0.0218499992
v -0.004329491872 -0.1044812426 0.0362300016
v 0.006130981259 -0.1035891473 0.01676999964
v -0.002138711978 -0.1035891473 0.01523000002
v -0.01817169227 -0.09342524409 0.02221000008
v 0.009389967658 -0.1044812426 0.0222299993
v -0.01873009279 -0.09342524409 0.02675000019
v -0.01554759219 -0.0963595435 0.03502999991
v 0.02615070902 0.008508255705 0.01675000042
v 0.03477370739 -0.04470940307 0.01702000014
v 0.00271905819 -0.09190054238 0.04566000029
v 0.002149638021 -0.1003326476 0.04170000181
v -0.009871792048 -0.1044812426 0.03009000048
v 0.01395822782 -0.101508148 0.02847000025
v -0.01780629158 0.004761355463 0.03527000174
f 122 9 6
f 56 23 8
f 30 23 8
f 30 80 8
f 54 37 122
f 82 9 2
f 82 7 9
f 84 123 47
f 19 84 123
f 19 11 76
f 100 80 4
f 100 30 80
f 100 120 4
f 108 122 6
f 108 37 122
f 118 120 4
f 88 80 4
f 39 49 87
f 126 39 87
f 126 39 75
f 40 82 7
f 62 7 9
f 77 62 9
f 77 62 35
f 46 62 35
f 116 42 17
f 63 11 76
f 63 42 76
f 63 116 119
f 63 116 42
f 65 45 6
f 65 123 47
f 65 19 123
f 65 77 47
f 65 9 6
f 65 77 9
f 102 19 84
f 52 126 87
f 52 126 110
f 97 45 17
f 18 108 37
f 28 118 120
f 28 52 110
f 28 118 112
f 128 80 8
f 12 48 54
f 12 54 37
f 12 88 37
f 12 128 48
f 12 88 80
f 12 128 80
f 115 39 64
f 115 39 49
f 79 56 23
f 32 102 19
f 20 115 64
f 20 49 99
f 20 115 49
f 107 95 13
f 107 50 13
f 111 39 64
f 111 39 75
f 111 5 75
f 101 111 64
f 101 111 5
f 21 96 67
f 21 46 35
f 26 54 122
f 78 26 55
f 78 26 122
f 78 9 2
f 78 122 9
f 22 48 54
f 22 26 54
f 22 26 55
f 90 40 7
f 90 40 15
f 90 7 3
f 98 40 15
f 98 78 2
f 98 82 2
f 98 40 82
f 98 55 15
f 98 78 55
f 86 77 47
f 86 84 1
f 86 84 47
f 86 77 35
f 86 21 1
f 86 21 35
f 104 67 7
f 104 46 7
f 104 21 67
f 104 21 46
f 92 62 7
f 92 46 7
f 92 46 62
f 61 101 5
f 38 116 119
f 38 61 119
f 27 65 45
f 27 19 76
f 27 65 19
f 44 52 121
f 44 100 120
f 44 28 120
f 44 28 52
f 44 30 121
f 44 100 30
f 66 28 110
f 66 28 112
f 16 74 53
f 16 66 112
f 16 66 74
f 25 126 110
f 25 126 75
f 25 66 110
f 25 66 74
f 31 74 53
f 109 45 6
f 60 118 112
f 60 16 112
f 113 88 37
f 113 18 37
f 113 60 18
f 14 49 87
f 14 52 87
f 14 52 121
f 89 79 56
f 89 56 3
f 89 41 99
f 33 49 99
f 33 89 99
f 33 89 79
f 70 95 13
f 105 107 50
f 105 20 64
f 125 41 50
f 125 105 50
f 125 105 20
f 125 20 99
f 125 41 99
f 36 107 95
f 36 61 95
f 36 61 101
f 36 105 107
f 36 101 64
f 36 105 64
f 51 21 1
f 51 21 96
f 51 84 1
f 51 102 84
f 51 96 10
f 51 102 10
f 85 22 48
f 85 128 8
f 85 128 48
f 85 56 3
f 85 56 8
f 93 55 15
f 93 22 55
f 83 45 17
f 83 27 45
f 83 42 17
f 83 42 76
f 83 27 76
f 91 5 75
f 114 25 74
f 114 31 74
f 114 91 31
f 114 25 75
f 114 91 75
f 117 97 53
f 117 31 53
f 117 97 17
f 58 18 108
f 58 108 6
f 58 109 6
f 43 88 4
f 43 113 88
f 43 118 4
f 43 60 118
f 43 113 60
f 68 14 121
f 68 30 121
f 68 30 23
f 68 79 23
f 106 33 49
f 106 33 79
f 106 14 49
f 106 68 79
f 106 68 14
f 71 70 13
f 71 70 32
f 71 102 10
f 71 32 102
f 127 70 32
f 127 70 95
f 124 29 41
f 124 89 3
f 124 89 41
f 69 29 10
f 69 71 10
f 69 71 13
f 103 41 50
f 103 29 41
f 103 69 29
f 103 50 13
f 103 69 13
f 59 85 22
f 59 93 22
f 59 85 3
f 59 90 3
f 59 90 15
f 59 93 15
f 72 117 31
f 72 91 31
f 72 38 116
f 72 116 17
f 72 117 17
f 57 58 18
f 57 60 18
f 57 60 16
f 57 16 53
f 73 127 32
f 73 63 11
f 73 19 11
f 73 32 19
f 24 63 119
f 24 61 119
f 24 73 63
f 24 73 127
f 24 61 95
f 24 127 95
f 81 124 29
f 81 96 10
f 81 29 10
f 81 96 67
f 81 124 3
f 81 7 3
f 81 67 7
f 94 91 5
f 94 72 91
f 94 72 38
f 94 61 5
f 94 38 61
f 34 58 109
f 34 57 58
f 34 97 45
f 34 109 45
f 34 97 53
f 34 57 53
