# Generated by scripts.build_simple_convex_collision
v 0.02038099058 -0.08588544279 -0.02611999959
v 0.0002319414634 0.01849855483 -0.02474999987
v 0.0003974514839 -0.08878514171 -0.007269999944
v -0.03667840734 -0.03091284446 -0.03474999964
v 1.487155621e-09 -0.1075000465 -0.02675000019
v 0.0003974514839 -0.08878514171 -0.04622999951
v -0.03013790771 0.009103354998 -0.01740000024
v 0.017677892 0.002900055377 -0.03615999967
v -0.02939100936 0.009358054958 -0.03655999899
v -0.03405280784 -0.05396409333 -0.01775000058
v -0.01519676857 -0.0963595435 -0.03565999866
v -0.0138224382 -0.09775004536 -0.01704999991
v 0.01773029193 0.005280855577 -0.02474999987
v 0.01191149186 -0.09907724708 -0.03750000149
v 0.01191149186 -0.09907724708 -0.01600000076
v 0.002239101566 0.01777375489 -0.03615999967
v -0.001840258483 -0.1025959477 -0.03954999894
v -0.0007908784901 -0.1025959477 -0.01384000015
v -0.03411711007 -0.05441905558 -0.03527000174
v 0.01413449179 -0.08580614626 -0.01205999963
v -0.03637081012 -0.02162004448 -0.01823000051
v 0.01342719141 0.01262705587 -0.03527000174
v 0.01171449106 -0.1035891473 -0.02675000019
v -0.01170472894 -0.1035891473 -0.02723000012
v 0.01818249188 -0.08608474582 -0.03592000157
v 0.01008329168 0.01551055536 -0.02474999987
v -0.008469228633 -0.09342524409 -0.04346000031
v -0.008639158681 -0.09190054238 -0.009708999656
v 0.0107955914 -0.09035044163 -0.04281999916
v 0.01738319173 -0.0963595435 -0.02388999984
v -0.01760260761 -0.0963595435 -0.0260300003
v 0.005650091451 -0.1052663475 -0.03384000063
v 0.004617491271 -0.0963595435 -0.04374999925
v 0.004617491271 -0.0963595435 -0.009748999961
v -0.03481130674 -0.007764744572 -0.03474999964
v 0.005650091451 -0.1052663475 -0.01965999976
v -0.006472899579 -0.1052663475 -0.02040999942
v 0.01463969145 -0.02999184467 -0.01675000042
v -0.008367438801 -0.1035891473 -0.0349499993
v 0.01668719202 -0.0963595435 -0.03240000084
v -0.004905938637 0.01776695624 -0.03527000174
v 0.01875639148 -0.08588544279 -0.01875000075
v -0.007256538607 -0.09907724708 -0.01243999973
v -0.03506980836 -0.01707854494 -0.03647999838
v -0.001860198565 -0.1064964458 -0.03263999894
v -0.00259479857 -0.09491484612 -0.008702999912
v 0.00753879128 0.0168196559 -0.03527000174
v -0.01050932892 -0.09907724708 -0.03888000175
v 0.005842191633 -0.101508148 -0.01396000013
v -0.00259479857 -0.09491484612 -0.0447999984
v 0.005842191633 -0.101508148 -0.03954000026
v 0.00657949131 -0.09035044163 -0.008545000106
v -0.02615070902 0.008508255705 -0.01675000042
v 0.01556089148 0.01000545546 -0.02474999987
v -0.03093210794 0.00824585557 -0.035050001
v 0.01533839107 -0.09491484612 -0.01689000055
v -0.03524320945 -0.0401189439 -0.03647999838
v -0.006128827576 -0.1064964458 -0.02749999985
v -0.03623970971 -0.04020254314 -0.01875000075
v -0.03481130674 -0.007764744572 -0.01875000075
v 0.01239699125 0.01165825501 -0.03668000177
v 0.006154491566 -0.1064964458 -0.02724999934
v 0.01016819105 -0.09491484612 -0.01162
v -0.01165032852 -0.1025959477 -0.02113999985
v 0.01430729125 -0.1003326476 -0.02191000059
v 0.0165269915 0.008160455152 -0.03527000174
v -0.03554490954 -0.0355145447 -0.01702000014
v 0.01290909108 -0.101508148 -0.03232999891
v -0.0003776785161 -0.1064964458 -0.02058999985
v 0.01487899106 -0.09342524409 -0.03813000023
v -0.01409785822 -0.1003326476 -0.03217000142
v -0.005869537592 -0.08878514171 -0.04532999918
v 0.005106791388 -0.08721484244 -0.04554999992
v -0.03382600844 -0.007935645059 -0.01702000014
v -0.005869537592 -0.08878514171 -0.008170999587
v -0.006065680645 -0.09907724708 -0.04160999879
v 0.01016819105 -0.09491484612 -0.04188000038
v -0.01226560865 -0.09342524409 -0.04091000184
v 0.005369591527 0.01770355552 -0.02474999987
v -0.009209598415 -0.101508148 -0.01611999981
v 0.01599479094 -0.09907724708 -0.02806000039
v -0.01153686829 -0.0963595435 -0.01343999989
v 0.01087819133 -0.1025959477 -0.01975999959
v 0.0003273614857 -0.09907724708 -0.0427899994
v 0.01975979097 -0.08634114265 -0.03175999969
v -0.004924078472 0.01783265546 -0.02474999987
v -0.01539811864 -0.09907724708 -0.0222299993
v 0.0009227314731 -0.1052663475 -0.03576000035
v -0.01725200936 -0.0963595435 -0.0303199999
v 0.0004926914698 0.0184934549 -0.03474999964
v 0.01849949174 0.0001392554113 -0.02474999987
v 0.01866779104 -0.09342524409 -0.02827999927
v -0.0009815385565 -0.09907724708 -0.01073199976
v 0.005073691718 -0.08564954251 -0.008069000207
v 0.006493891589 -0.09190054238 -0.04472000152
v -0.004657908343 0.01686875522 -0.03647999838
v 0.01846219227 0.001181655447 -0.03474999964
v -0.02885430865 0.00935565494 -0.01678000018
v -0.005296956282 -0.1035891473 -0.01630000025
v -0.03569890931 -0.04482109472 -0.03527000174
v -0.03333440796 -0.05382361636 -0.03647999838
v 0.007157691289 0.01596925594 -0.03647999838
v 0.003463751404 -0.1069333479 -0.02362000011
v 0.009597791359 -0.1025959477 -0.03542000055
v -0.01509222854 -0.1003326476 -0.02737000026
v 0.002278151456 -0.1069333479 -0.03082000092
v 0.002731641522 -0.1044812426 -0.01669000089
v -0.03637081012 -0.02162004448 -0.03527000174
v 0.008318291046 -0.1052663475 -0.02315000072
v 0.001907151542 -0.09342524409 -0.008116999641
v 0.009871791117 -0.1044812426 -0.03009000048
v 0.01774119213 -0.09342524409 -0.02074000053
v -0.03168080747 0.005825555418 -0.01875000075
v -0.009727308527 -0.1044812426 -0.0304899998
v -0.03336020932 -0.003318644594 -0.03615999967
v 0.008949891664 -0.09907724708 -0.04007000104
v 0.001907151425 -0.09342524409 -0.04538000003
v 0.01694789156 -0.08634114265 -0.01542000007
v -0.008695028722 -0.1052663475 -0.02419999987
v -0.003819668433 -0.1069333479 -0.02407000028
v 0.01569139212 0.007747855503 -0.03647999838
v -0.004097628407 -0.1052663475 -0.03483000025
v -0.01642720774 -0.09491484612 -0.01884000003
v -0.03609260917 -0.030906545 -0.03615999967
v -0.006767615676 -0.1025959477 -0.03776999936
v 0.002757681534 -0.1003326476 -0.01190000027
v 0.01039029192 0.01459315512 -0.03615999967
v -0.007966038771 -0.0963595435 -0.01103700045
f 53 98 3
f 86 98 2
f 90 86 2
f 94 20 38
f 94 53 3
f 94 53 38
f 59 67 10
f 7 86 98
f 7 86 9
f 7 74 98
f 7 113 60
f 7 74 60
f 97 91 1
f 97 25 8
f 31 123 10
f 31 19 10
f 100 124 4
f 100 59 4
f 100 19 10
f 100 59 10
f 101 100 19
f 72 101 27
f 72 44 9
f 108 124 4
f 108 44 124
f 42 112 1
f 42 91 1
f 52 94 20
f 52 63 20
f 52 94 3
f 55 7 9
f 55 7 113
f 21 74 60
f 21 74 67
f 21 59 67
f 21 59 4
f 21 108 4
f 85 25 40
f 85 97 1
f 85 97 25
f 13 91 38
f 13 54 38
f 13 97 91
f 16 96 102
f 16 47 90
f 16 47 102
f 41 90 86
f 41 86 9
f 41 96 9
f 41 16 90
f 41 16 96
f 121 8 73
f 121 61 73
f 26 53 38
f 26 54 38
f 22 121 61
f 22 26 54
f 22 26 47
f 89 11 19
f 89 31 19
f 89 11 71
f 78 11 19
f 78 101 19
f 78 101 27
f 57 72 101
f 57 100 124
f 57 101 100
f 57 44 124
f 57 72 44
f 6 72 9
f 6 96 9
f 6 96 102
f 6 61 73
f 6 61 102
f 118 42 112
f 118 20 38
f 118 91 38
f 118 42 91
f 68 81 40
f 92 81 40
f 92 85 1
f 92 85 40
f 110 46 3
f 110 52 3
f 75 67 10
f 75 28 10
f 75 74 67
f 75 46 3
f 75 28 46
f 75 98 3
f 75 74 98
f 35 108 44
f 35 113 60
f 35 55 113
f 17 84 51
f 17 76 84
f 29 25 8
f 29 8 73
f 33 84 51
f 79 26 53
f 79 98 2
f 79 53 98
f 79 26 47
f 79 90 2
f 79 47 90
f 66 22 54
f 66 22 121
f 66 13 54
f 66 121 8
f 66 97 8
f 66 13 97
f 127 47 102
f 127 22 47
f 127 61 102
f 127 22 61
f 87 31 123
f 12 123 10
f 12 87 123
f 12 87 64
f 119 64 37
f 50 76 27
f 50 76 84
f 50 72 27
f 50 6 72
f 56 15 63
f 56 63 20
f 56 118 20
f 56 118 112
f 56 65 15
f 14 68 40
f 83 65 15
f 30 65 81
f 30 92 81
f 30 56 112
f 30 56 65
f 30 112 1
f 30 92 1
f 115 44 9
f 115 35 44
f 115 55 9
f 115 35 55
f 125 17 76
f 95 29 77
f 95 33 77
f 95 29 73
f 95 6 73
f 105 87 31
f 105 89 71
f 105 89 31
f 105 87 64
f 117 50 6
f 117 95 6
f 117 95 33
f 117 33 84
f 117 50 84
f 88 106 45
f 88 17 51
f 5 106 62
f 5 106 45
f 70 25 40
f 70 14 40
f 70 14 77
f 70 29 25
f 70 29 77
f 116 14 77
f 116 33 51
f 116 33 77
f 104 14 68
f 104 111 68
f 104 116 51
f 104 116 14
f 23 65 81
f 23 68 81
f 23 111 68
f 23 83 109
f 23 83 65
f 23 62 109
f 23 111 62
f 32 106 62
f 32 111 62
f 32 104 111
f 32 88 106
f 32 88 51
f 32 104 51
f 36 83 109
f 34 52 63
f 34 110 52
f 49 15 63
f 49 34 63
f 49 34 126
f 49 126 107
f 49 83 15
f 49 36 107
f 49 36 83
f 39 114 71
f 122 125 17
f 122 88 45
f 122 88 17
f 122 39 125
f 122 39 114
f 48 125 76
f 48 78 11
f 48 39 125
f 48 76 27
f 48 78 27
f 48 11 71
f 48 39 71
f 24 119 64
f 24 105 64
f 24 114 71
f 24 105 71
f 82 28 10
f 82 12 10
f 93 43 46
f 93 34 126
f 93 110 46
f 93 34 110
f 80 12 64
f 80 64 37
f 80 82 12
f 80 82 43
f 120 119 37
f 103 5 62
f 103 62 109
f 103 36 109
f 128 82 28
f 128 82 43
f 128 28 46
f 128 43 46
f 18 93 43
f 18 126 107
f 18 93 126
f 58 5 45
f 58 120 5
f 58 122 45
f 58 122 114
f 58 120 119
f 58 24 114
f 58 24 119
f 69 120 5
f 69 103 5
f 69 120 37
f 69 36 107
f 69 103 36
f 69 18 107
f 99 80 37
f 99 69 37
f 99 69 18
f 99 80 43
f 99 18 43
f 35 21 108
f 35 21 60
