# Generated by scripts.build_simple_convex_collision
v 0.02038099989 -0.08588539809 0.001372470055
v 0.0002319390042 0.01849850081 9.514307744e-14
v 0.0003974490101 -0.08878520131 0.02148010023
v -0.03667839989 -0.03091279976 -0.006000000052
v 2.204861987e-11 -0.1075000018 0.002000000095
v 0.0003974490392 -0.08878520131 -0.01748009957
v -0.03013790026 0.009103369899 0.01134801004
v 0.01799160056 0.002951479983 0.01099999994
v -0.02954390086 0.009331990033 -0.007742390037
v -0.0337808989 -0.05426900089 0.01124698017
v -0.01519680023 -0.0963594988 -0.006912190001
v -0.01382240001 -0.09775000066 0.01170193963
v 0.01773029938 0.005280860234 7.27309055e-12
v 0.01191150025 -0.09907729924 0.01275449991
v 0.002239099937 0.01777370088 0.01141421031
v 0.01191150025 -0.09907729924 -0.008754500188
v -0.001840259996 -0.1025959998 -0.01079929993
v -0.0007908749976 -0.1025959998 0.01490669977
v -0.0341170989 -0.05441910028 -0.006517639849
v 0.01407600008 -0.08578380197 -0.01273780037
v -0.03637079895 -0.02161999978 0.01051764004
v 0.0134271998 0.01262709964 0.01051764004
v 0.01822189987 -0.08615019917 0.01110325009
v 0.01171450038 -0.1035889983 0.002000000095
v -0.01170470007 -0.1035889983 0.001522182953
v 0.01008330006 0.01551060006 4.136238661e-12
v -0.008469229564 -0.09342519939 -0.01470599975
v -0.008639159612 -0.09190049767 0.01904119924
v 0.009450029582 -0.09035050124 0.01889440045
v 0.01738319919 -0.0963594988 0.004862389993
v -0.01760260016 -0.0963594988 0.002718583914
v 0.005053829867 -0.1052659974 -0.005522000138
v 0.004617520142 -0.0963594988 -0.01500140037
v -0.006472900044 -0.1052659974 0.008342180401
v 0.005650130101 -0.1052659974 0.009085039608
v -0.03481129929 -0.007764790207 -0.006000000052
v 0.01463969983 -0.02999179997 -0.00800000038
v 0.01727019995 -0.09491480142 -0.003846070031
v -0.008367439732 -0.1035889983 -0.006198460236
v 0.003216380021 -0.0963594988 0.01932119951
v -0.004924079869 0.01783270016 0.009999999776
v 0.01875190064 -0.08634109795 -0.005996529944
v -0.007256540004 -0.09907729924 0.01631389931
v -0.03506980091 -0.01707860082 -0.007732050028
v -0.002302529989 -0.1059399992 -0.00528828986
v -0.03623969853 -0.04020259902 0.009999999776
v 0.007566649932 0.01688179933 0.009999999776
v -0.009485780261 -0.09907729924 -0.01094469987
v 0.005842170212 -0.101507999 0.01479259972
v -0.002507199999 -0.0963594988 -0.01543799974
v 0.006579520181 -0.09035050124 -0.01620540023
v 0.01348530035 0.01038010046 0.01193184964
v 0.01556089986 0.01000539958 6.383187815e-12
v -0.03524319828 -0.04011899978 -0.007732050028
v -0.006128829904 -0.1064959988 0.00124606397
v -0.03481129929 -0.007764790207 0.009999999776
v 0.005842170212 -0.101507999 -0.01079259999
v 0.01044560038 -0.09342519939 -0.01354689989
v 0.0139020998 -0.09342519939 0.01455179974
v 0.006154479925 -0.1064959988 0.001496677985
v -0.01165029965 -0.1025959998 0.007610499859
v -0.002594799967 -0.09491480142 0.02004720084
v 0.01430729963 -0.1003329977 -0.002843119903
v 0.01430729963 -0.1003329977 0.00684311986
v 0.008600340225 -0.0963594988 0.01737540029
v -0.03554489836 -0.03551449999 0.01173205022
v -0.0003776749945 -0.1064959988 0.008163469844
v -0.03093210049 0.008245900273 -0.006300379988
v -0.01409790013 -0.1003329977 -0.003422660055
v 0.01652700081 0.008160459809 0.01051764004
v -0.00586953992 -0.08878520131 -0.01657910086
v 0.008696160279 0.01518640015 0.01173205022
v 0.01487900037 -0.09342519939 -0.009376900271
v -0.03382600099 -0.007935630158 0.01173205022
v 0.01033829991 -0.1035889983 -0.003508989932
v -0.00586953992 -0.08878520131 0.02057909966
v 0.01673620008 -0.09491480142 0.009234299883
v -0.004768160172 0.01726800017 0.01141421031
v -0.01226560026 -0.09342519939 -0.01215530001
v 0.005369639955 0.01770360023 2.202662965e-12
v -0.009209600277 -0.101507999 0.01262839977
v 0.005106839817 -0.08721479774 0.02080300078
v -0.01153689995 -0.0963594988 0.01531429961
v 0.01087819971 -0.1025959998 0.00899097044
v -0.004924079869 0.01783270016 -2.019891199e-12
v -0.01539810002 -0.09907729924 0.006521299947
v -0.01725200005 -0.0963594988 -0.001569040003
v 0.01976449974 -0.08588539809 0.007014119998
v 0.001538019977 -0.1003329977 -0.01302629989
v -0.0261506997 0.008508260362 -0.00800000038
v 0.01849949919 0.0001392389968 7.588621571e-12
v -0.02885420062 0.009355610237 0.01197206974
v -0.005296960007 -0.1035889983 0.01244849991
v -0.03569889814 -0.04482109845 -0.006517639849
v 0.005007689819 -0.09190049767 0.02043800056
v -0.0009815340163 -0.09907729924 0.01801810041
v 0.00941796042 -0.09775000066 -0.01201749966
v -0.0333344005 -0.05382360145 -0.007732050028
v 0.002278150059 -0.1069329977 -0.002072799951
v 0.0004926919937 0.01849340089 0.009999999776
v 0.003463750007 -0.1069329977 0.005127320066
v -0.01509219967 -0.1003329977 0.001383897034
v 0.01666310057 -0.09775000066 -0.0007438199827
v -0.00483444985 -0.09907729924 -0.01330269966
v 0.002731649904 -0.1044809967 0.01205770019
v 0.0003820670245 -0.09342519939 -0.01672619954
v -0.03637079895 -0.02161999978 -0.006517639849
v 0.008318250068 -0.1052659974 0.005595600232
v -0.03168080002 0.005825600121 0.009999999776
v -0.009727310389 -0.1044809967 -0.00174156006
v 0.0133493999 -0.08878520131 0.01619249955
v -0.01161480043 -0.1003329977 -0.007656619884
v 0.002138710115 -0.1035889983 -0.009517599829
v -0.03336019814 -0.00331864995 -0.007414210122
v 0.01644009911 0.004395990167 0.01193184964
v 0.008859490044 -0.1025959998 -0.007418990135
v 0.003557220101 -0.08721479774 -0.01715669967
v 0.01866780035 -0.09342519939 0.0004733200185
v -0.03431579843 -0.05401549861 0.009999999776
v -0.001225020038 0.01697349921 0.01193184964
v -0.00869502034 -0.1052659974 0.00455308985
v -0.003819660051 -0.1069329977 0.004681009799
v 0.01505449973 -0.1003329977 0.0032311799
v 0.01694790088 -0.08634109795 -0.009328999557
v -0.01642720029 -0.09491480142 0.009910919704
v -0.03609269857 -0.03090650029 -0.007414210122
v -0.005846989807 -0.1025959998 -0.009533500299
v -0.00587735977 -0.1059399992 -0.00288645993
f 125 119 10
f 85 9 2
f 90 9 2
f 90 80 2
f 31 125 119
f 31 19 119
f 46 119 10
f 46 66 10
f 7 74 92
f 37 90 117
f 37 91 13
f 120 92 3
f 82 52 3
f 8 88 23
f 8 91 13
f 8 88 1
f 8 91 1
f 44 71 9
f 98 71 27
f 76 66 10
f 76 28 10
f 76 74 66
f 76 92 3
f 76 74 92
f 21 74 66
f 21 46 66
f 21 46 4
f 68 109 36
f 68 7 9
f 68 7 109
f 26 90 80
f 26 37 90
f 42 91 1
f 118 88 1
f 118 42 1
f 118 42 38
f 72 52 3
f 72 120 3
f 41 7 92
f 41 85 9
f 41 7 9
f 41 85 2
f 111 8 23
f 111 8 29
f 111 59 23
f 111 59 29
f 115 82 52
f 115 82 29
f 115 8 29
f 70 8 13
f 70 115 52
f 70 115 8
f 87 31 19
f 87 11 19
f 87 11 69
f 107 44 36
f 107 21 4
f 114 44 9
f 114 44 36
f 114 68 9
f 114 68 36
f 79 11 19
f 79 98 19
f 79 98 27
f 54 44 71
f 54 98 71
f 6 106 71
f 6 71 9
f 6 90 117
f 6 90 9
f 50 71 27
f 50 106 71
f 112 127 39
f 112 39 69
f 112 11 69
f 56 21 74
f 56 7 74
f 56 7 109
f 56 109 36
f 53 37 13
f 53 26 37
f 53 70 13
f 124 37 20
f 124 37 91
f 124 42 91
f 103 118 38
f 116 57 97
f 51 37 117
f 51 37 20
f 51 6 117
f 51 6 106
f 30 103 118
f 30 118 88
f 102 87 69
f 102 87 31
f 100 80 2
f 100 41 2
f 78 120 92
f 78 41 92
f 78 100 41
f 22 53 26
f 22 53 70
f 22 72 52
f 22 70 52
f 126 107 44
f 126 54 44
f 126 107 4
f 94 98 19
f 94 54 98
f 94 46 4
f 94 126 4
f 94 126 54
f 94 19 119
f 94 46 119
f 48 112 127
f 48 79 27
f 48 79 11
f 48 112 11
f 104 50 89
f 104 48 127
f 104 50 27
f 104 48 27
f 73 42 38
f 73 124 42
f 73 124 20
f 24 60 75
f 45 127 39
f 33 51 106
f 33 50 89
f 33 50 106
f 33 57 89
f 33 57 97
f 64 24 84
f 77 59 23
f 77 88 23
f 77 30 88
f 77 64 30
f 110 39 69
f 62 40 96
f 62 76 3
f 62 76 28
f 62 43 28
f 62 43 96
f 95 82 3
f 95 62 3
f 95 62 40
f 95 82 29
f 49 40 96
f 108 24 84
f 108 24 60
f 101 60 5
f 101 67 5
f 101 108 60
f 47 100 80
f 47 26 80
f 47 22 26
f 47 22 72
f 15 72 120
f 15 78 120
f 15 78 100
f 15 47 72
f 15 47 100
f 17 104 89
f 17 104 127
f 17 45 127
f 16 73 38
f 16 116 75
f 16 116 97
f 16 73 97
f 58 73 20
f 58 73 97
f 58 51 20
f 58 33 97
f 58 33 51
f 63 24 75
f 63 16 75
f 63 103 38
f 63 16 38
f 99 60 5
f 99 45 5
f 123 64 24
f 123 63 103
f 123 63 24
f 123 30 103
f 123 64 30
f 128 45 39
f 128 110 39
f 128 45 5
f 65 49 40
f 65 59 29
f 65 95 29
f 65 95 40
f 18 49 96
f 18 43 96
f 35 101 108
f 35 49 84
f 35 108 84
f 35 101 67
f 86 31 125
f 86 102 31
f 113 17 45
f 113 57 89
f 113 17 89
f 14 49 84
f 14 65 49
f 14 65 59
f 14 64 84
f 14 77 59
f 14 77 64
f 105 18 49
f 105 35 49
f 105 18 67
f 105 35 67
f 25 102 69
f 25 110 69
f 55 128 110
f 55 25 110
f 55 25 121
f 55 128 5
f 32 99 45
f 32 113 45
f 32 116 75
f 32 116 57
f 32 113 57
f 32 60 75
f 32 99 60
f 93 18 43
f 93 81 43
f 93 81 34
f 93 34 67
f 93 18 67
f 83 81 43
f 83 43 28
f 83 28 10
f 61 25 121
f 61 86 102
f 61 25 102
f 61 121 34
f 61 81 34
f 122 67 5
f 122 55 5
f 122 34 67
f 122 121 34
f 122 55 121
f 12 83 81
f 12 61 86
f 12 61 81
f 12 86 125
f 12 125 10
f 12 83 10
f 56 107 21
f 56 107 36
