# Generated by scripts.build_simple_convex_collision
v 0.03667839989 -0.03091279976 -0.03474999964
v -0.0002319390042 0.01849850081 -0.02474999987
v -0.0003974489809 -0.08878520131 -0.007269899826
v -0.02038099989 -0.08588539809 -0.02612246946
v 2.204861814e-11 -0.1075000018 -0.02675000019
v -0.0003974489809 -0.08878520131 -0.0462301001
v 0.03013790026 0.009103369899 -0.01740198955
v -0.01799160056 0.002951479983 -0.03575000167
v 0.02939089946 0.009358069859 -0.03656306118
v 0.03374090046 -0.05390309915 -0.01733578928
v 0.01587259956 -0.0963594988 -0.03439385071
v -0.01829640009 0.002737199888 -0.02474999987
v 0.01234029979 -0.09907729924 -0.01649029925
v -0.002239099937 0.01777370088 -0.03616420925
v -0.01191150025 -0.09907729924 -0.03750450164
v -0.01191150025 -0.09907729924 -0.01599550061
v 0.003129410092 -0.101507999 -0.04046079889
v 0.03399850056 -0.05436610058 -0.03561776876
v -0.01413450018 -0.08580619842 -0.01206490025
v -0.01216259971 0.01393990032 -0.02474999987
v 0.000860144035 -0.101507999 -0.0127128996
v 0.03637079895 -0.02161999978 -0.01823236048
v -0.01171450038 -0.1035889983 -0.02675000019
v -0.0134271998 0.01262709964 -0.03526763991
v -0.0121481996 -0.08878520131 -0.04198329896
v 0.01170470007 -0.1035889983 -0.0272278171
v 0.009802740067 -0.09342519939 -0.04270999879
v 0.008639159612 -0.09190049767 -0.009708800353
v -0.004423900042 -0.1052659974 -0.03465890884
v -0.01843919978 -0.08633360267 -0.03544175997
v -0.01463969983 -0.02999179997 -0.01675000042
v 0.01748549938 -0.0963594988 -0.02459903061
v -0.01738319919 -0.0963594988 -0.02961239032
v -0.004617520142 -0.0963594988 -0.04375139996
v -0.005650130101 -0.1052659974 -0.01966495998
v 0.03481129929 -0.007764790207 -0.03474999964
v 0.005934409797 -0.1052659974 -0.01990132034
v -0.006197140086 -0.09491480142 -0.00960270036
v -0.01727019995 -0.09491480142 -0.02090393007
v 0.005934409797 -0.1052659974 -0.03359868005
v 0.004924079869 0.01783270016 -0.03474999964
v 0.009891539812 -0.1003329977 -0.03816540167
v -0.01875190064 -0.08634109795 -0.01875347085
v 0.002594799967 -0.09491480142 -0.008702799678
v 0.002594799967 -0.09491480142 -0.04479720071
v -0.007566649932 0.01688179933 -0.03474999964
v 0.03516149893 -0.02630029991 -0.03668184951
v -0.005842169747 -0.101507999 -0.01395739987
v 0.03393330052 -0.003197589889 -0.01875000075
v 0.03617180139 -0.04019689932 -0.01823236048
v -0.005369639955 0.01770360023 -0.02474999987
v -0.005842169747 -0.101507999 -0.03954260051
v -0.01348530035 0.01038010046 -0.03668184951
v -0.01556089986 0.01000539958 -0.02474999987
v 0.00606568018 -0.09907729924 -0.0118923001
v -0.009854840115 -0.1035889983 -0.03308331966
v -0.006092980038 -0.1064959988 -0.02775328979
v -0.01016820036 -0.09491480142 -0.04188419878
v -0.006622469984 -0.08721479774 -0.0450741984
v 0.03093210049 0.008245900273 -0.03505038098
v 0.0261506997 0.008508260362 -0.01675000042
v 0.006128829904 -0.1064959988 -0.02750393562
v 0.01267070044 -0.101507999 -0.03285190091
v -0.01609089971 -0.09491480142 -0.0353243798
v 0.005831470247 -0.09035050124 -0.04520859942
v -0.006622469984 -0.08721479774 -0.00842580013
v 0.03458980098 -0.01712610014 -0.01681815088
v -0.01332089957 -0.101507999 -0.02224076912
v 0.0003776750236 -0.1064959988 -0.02058652975
v 0.01337859966 -0.09342519939 -0.01364159957
v -0.01487900037 -0.09342519939 -0.0153730996
v 0.01409790013 -0.1003329977 -0.02132733911
v -0.008901990019 0.01554589998 -0.03616420925
v 0.01587259956 -0.0963594988 -0.01910614967
v 0.001289670006 -0.1052659974 -0.03571986035
v -0.01652700081 0.008160459809 -0.03526763991
v 0.01592810079 -0.09907729924 -0.02870938927
v -0.01386489999 -0.1003329977 -0.03274317831
v 0.01258370001 -0.0963594988 -0.03907959908
v 0.03494169936 -0.01243990008 -0.03616420925
v 0.004924079869 0.01783270016 -0.02474999987
v -0.01167799998 -0.09342519939 -0.01210619975
v 0.004768160172 0.01726800017 -0.03616420925
v 0.007636050228 -0.09775000066 -0.04181250185
v 0.004335639998 -0.08878520131 -0.00775429979
v 0.007643210236 -0.1025959998 -0.01631980017
v 0.03597269952 -0.04018019885 -0.03575000167
v -0.002929910086 -0.09907729924 -0.01097149961
v -0.01599480025 -0.09907729924 -0.02544192038
v -0.0139020998 -0.09342519939 -0.03930180147
v -0.0008519899566 -0.1069329977 -0.0313382186
v -0.0004926919937 0.01849340089 -0.03474999964
v 0.02885420062 0.009355610237 -0.01677793078
v 0.003139609937 -0.1044809967 -0.01681206003
v 0.03554489836 -0.03551449999 -0.01701794937
v 0.01055440027 -0.1035889983 -0.0216672793
v -0.02014010027 -0.08634109795 -0.02990468033
v -0.001061209943 -0.1044809967 -0.01638210006
v -0.001538019977 -0.1003329977 -0.04177629948
v -0.007936879992 -0.09190049767 -0.04412940145
v -0.009197710082 -0.1044809967 -0.02184879035
v 0.03431579843 -0.05401549861 -0.01875000075
v -0.01817210019 -0.09491480142 -0.02526386082
v 0.03423409909 -0.007864870131 -0.01733578928
v 0.01041319966 -0.0963594988 -0.01253969967
v -0.001907159924 -0.09342519939 -0.008117199875
v -0.003197320038 -0.1069329977 -0.02335076034
v -0.008859490044 -0.1025959998 -0.01733100973
v 0.003588430118 -0.1069329977 -0.02376656979
v -0.00941796042 -0.09775000066 -0.01273250021
v -0.001907159924 -0.09342519939 -0.04538280144
v -0.01644009911 0.004395990167 -0.03668184951
v 0.03643880039 -0.02161579952 -0.03474999964
v 0.03232099861 0.001192669966 -0.03616420925
v 0.03104129992 0.007969450206 -0.01874364913
v 0.006130979862 -0.1035889983 -0.03673198074
v -0.007936879992 -0.09190049767 -0.009370599873
v 0.03413720056 -0.04927960038 -0.03648205101
v -0.01490360033 -0.09775000066 -0.01880829036
v -0.002138709882 -0.1035889983 -0.03826760128
v 0.009389970452 -0.1044809967 -0.03127197176
v -0.01694790088 -0.08634109795 -0.01542100031
v 0.01395819988 -0.101507999 -0.02503293008
v -0.009635459632 -0.101507999 -0.03699399903
v 0.003056009999 -0.1069329977 -0.03027682006
v -0.002127039945 0.01688420027 -0.03668184951
v 0.006891400088 -0.09491480142 -0.009869700298
v 0.00688641984 -0.1059399992 -0.02343367971
f 61 31 3
f 61 93 3
f 20 61 31
f 66 31 3
f 66 19 31
f 106 66 3
f 8 97 30
f 8 12 4
f 8 97 4
f 6 9 126
f 51 20 61
f 51 93 2
f 51 61 93
f 42 116 63
f 117 66 19
f 117 106 66
f 43 39 4
f 43 12 4
f 50 102 10
f 50 95 10
f 64 90 30
f 64 97 33
f 64 97 30
f 76 8 12
f 25 90 30
f 25 8 30
f 104 67 93
f 92 41 2
f 92 51 2
f 83 9 126
f 83 41 9
f 83 92 41
f 81 93 2
f 81 41 2
f 79 18 27
f 79 11 18
f 79 11 63
f 79 42 63
f 32 18 102
f 121 116 63
f 103 89 33
f 103 89 39
f 103 39 4
f 103 97 4
f 103 97 33
f 122 19 31
f 122 12 31
f 122 43 12
f 22 95 67
f 22 50 95
f 22 104 67
f 22 50 1
f 54 76 12
f 54 12 31
f 54 20 31
f 53 6 126
f 84 45 27
f 84 79 27
f 84 79 42
f 111 6 59
f 111 45 6
f 65 6 9
f 65 47 9
f 65 45 27
f 65 45 6
f 113 47 1
f 113 22 1
f 113 22 36
f 80 47 9
f 80 113 36
f 80 113 47
f 7 81 93
f 7 104 93
f 7 41 9
f 7 81 41
f 60 7 9
f 60 7 115
f 49 22 36
f 49 22 104
f 49 60 36
f 49 60 115
f 49 7 104
f 49 7 115
f 14 83 126
f 14 83 92
f 74 102 10
f 74 32 102
f 77 11 18
f 77 32 18
f 77 11 63
f 35 107 101
f 38 117 106
f 44 21 55
f 44 127 55
f 44 106 3
f 86 21 55
f 105 127 55
f 105 86 13
f 105 86 55
f 105 28 127
f 119 89 39
f 119 68 89
f 112 76 8
f 112 53 76
f 112 25 59
f 112 25 8
f 112 6 59
f 112 53 6
f 34 111 45
f 118 65 47
f 118 18 27
f 118 65 27
f 114 80 36
f 114 60 36
f 114 80 9
f 114 60 9
f 73 53 126
f 73 14 126
f 96 86 13
f 96 86 37
f 16 119 68
f 108 16 110
f 108 35 101
f 108 68 101
f 108 16 68
f 17 84 45
f 17 75 116
f 17 42 116
f 17 84 42
f 57 107 5
f 57 107 101
f 29 57 56
f 78 89 33
f 78 64 33
f 69 107 5
f 69 109 5
f 69 35 98
f 69 35 107
f 69 109 37
f 88 38 106
f 88 44 106
f 88 44 21
f 88 38 110
f 94 21 98
f 94 86 21
f 94 86 37
f 94 69 98
f 94 69 37
f 85 44 127
f 85 28 127
f 85 44 3
f 85 95 67
f 85 95 10
f 85 28 10
f 85 93 3
f 85 67 93
f 70 28 10
f 70 105 28
f 70 74 10
f 70 74 13
f 70 105 13
f 58 34 52
f 58 25 90
f 87 47 1
f 87 118 47
f 87 118 18
f 87 50 1
f 87 18 102
f 87 50 102
f 24 53 76
f 24 73 53
f 24 54 20
f 24 54 76
f 46 14 92
f 46 73 14
f 46 92 51
f 46 51 20
f 46 24 20
f 46 24 73
f 72 74 13
f 72 96 13
f 72 74 32
f 26 121 63
f 26 77 63
f 128 109 37
f 128 96 37
f 128 26 96
f 71 16 119
f 71 119 39
f 71 122 19
f 71 43 39
f 71 122 43
f 40 75 116
f 40 125 75
f 40 121 116
f 99 34 52
f 99 34 45
f 99 17 45
f 23 68 101
f 23 57 101
f 23 57 56
f 23 78 56
f 23 68 89
f 23 78 89
f 120 29 52
f 120 29 75
f 120 99 52
f 120 17 75
f 120 99 17
f 91 125 75
f 91 29 75
f 91 125 5
f 91 57 5
f 91 29 57
f 15 58 52
f 15 58 90
f 15 64 90
f 15 78 64
f 48 108 110
f 48 88 110
f 48 35 98
f 48 108 35
f 48 21 98
f 48 88 21
f 100 25 59
f 100 58 25
f 100 58 34
f 100 111 59
f 100 34 111
f 123 72 96
f 123 26 96
f 123 26 77
f 123 77 32
f 123 72 32
f 62 128 109
f 62 109 5
f 62 125 5
f 62 40 121
f 62 40 125
f 62 26 121
f 62 128 26
f 82 16 110
f 82 71 16
f 82 38 117
f 82 38 110
f 82 117 19
f 82 71 19
f 124 78 56
f 124 15 78
f 124 15 52
f 124 29 52
f 124 29 56
