# Generated by scripts.build_simple_convex_collision
v 0.1231561452 -0.05799965188 -0.006559228525
v 0.05619981885 0.06900014728 1.961490455e-07
v -6.22546068e-08 0.05799967796 0.0879419148
v -0.1231561601 0.05799970031 -0.006558551453
v -0.06069979444 -0.06900025159 0.02511450835
v 0.04999998212 -0.0299995169 -0.09600016475
v -0.06000000611 -0.03499981016 -0.09466036409
v 0.02296434157 -0.05900025368 0.0855839625
v 0.1222938299 0.05900036544 -0.01269980799
v -0.1226348579 -0.05900028348 -0.01064089127
v -0.06000019237 0.03707128391 -0.09307090193
v -0.07247278094 -0.05851802975 0.06525825709
v 0.05318171158 0.03555618227 -0.09368172288
v 0.07871940732 0.05799998343 0.06073883176
v -0.07867759466 0.05851716921 0.06068539619
v 0.08459430933 -0.05851758271 0.05574470013
v 0.07669854164 -0.06493158638 -0.03048111685
v -0.07887870073 0.06493180245 -0.03029478155
v -0.0305355601 -0.05851798877 0.08416071534
v -0.1050228179 -0.05800039694 0.03273609281
v 0.1092008725 0.05800018832 0.02625460178
v 0.1120511293 -0.05941380188 -0.02799423225
v -0.08405426145 -0.06493201107 -0.02920505218
v 0.08250310272 0.06493222713 -0.02963074483
v -0.03798016906 0.05799959973 0.08215375245
v -0.1153511778 0.05941399187 -0.02511036396
v 0.04517382756 0.05899982527 0.07938426733
v -0.06070015579 0.0689997524 0.02511501499
v -0.1049661189 0.05851720646 0.0326978229
v 0.06070020795 -0.06899993122 0.02511438541
v 0.1091431826 -0.05851741135 0.0262189731
v 0.0500000082 -0.03831423447 -0.09155589342
v -0.1137728691 -0.05941440165 -0.02659810148
v 0.1100638136 0.05941459537 -0.02938229404
v 0.05932432786 -0.05800011382 0.073299326
v 0.1022218466 0.06493211538 0.01418243442
v -0.1054951698 0.06493160874 0.003678836161
v 0.1022221819 -0.06493168324 0.01418195758
v -0.1037338153 -0.06493221223 0.01082156692
v 0.1212078407 0.05999961868 9.680479707e-08
v 0.1203911304 -0.05799961463 -0.01908903569
v 0.05707108602 -0.03137901053 -0.09293537587
v 0.0606998466 0.06900006533 0.02511489205
v -0.116283834 -0.05851795152 0.01256540325
v -0.06000017747 0.03000019491 -0.09599982947
v -0.007708148565 -0.05800034106 0.08770819753
v 0.1185468286 0.05800039321 -0.02218600735
v -0.1212931722 0.05799974501 -0.01705746353
v -0.05239216983 -0.05800041929 0.07667954266
v -0.1212081537 0.05999898165 3.439746763e-07
v 0.02301243506 0.05799974501 0.08584789187
v 0.1038551629 -0.06493158638 -0.01049794443
v -0.1197038665 -0.05800024047 -0.02036639117
v -0.09024919569 -0.05800042301 0.05050427839
v -0.05929248035 0.05851717666 0.07323947549
v 0.1022218168 0.06493221968 -0.01418216527
v 0.09477999061 0.05973208696 0.0442212224
v 0.1212081537 -0.05999898165 -3.439746763e-07
v 0.05707092583 0.03000049107 -0.09307105094
v -0.1216798425 -0.05993041396 -0.001475856057
v 0.05195072293 0.03000048734 -0.09580784291
v -0.0227449704 0.05993153155 0.0843899399
v -0.05999999121 -0.03866012394 -0.09100008011
v -0.1026498452 -0.06493212283 -0.01333423425
v -0.09804295003 0.06493157148 0.02023723908
v 0.05932402238 0.05799988657 0.07329975069
v 0.05178353563 -0.05993204191 0.07532802969
v -0.007618525065 -0.05993223563 0.08622858673
v 0.07166860998 0.05993185192 0.06409524381
v 0.03796003759 -0.05851780251 0.08208814263
v 0.05195089802 -0.03544841707 -0.09415508062
v 0.05074640736 0.0392392613 -0.08975321054
v 0.01520963013 0.05993162468 0.08553830534
v -0.09552940726 0.05799958482 0.0448837094
v 0.1215771437 -0.0597316362 -0.01255414356
v 0.1231508404 0.05813164636 -0.006542702205
v 0.09552949667 -0.05799991637 0.044883091
v 0.09328724444 -0.06493156403 -0.02458043396
v -0.09543709457 0.0649317354 -0.02284246497
v -0.09967160225 -0.05973240361 0.038337484
v -0.0586341694 -0.05993231758 0.07198724151
v -0.05619981885 -0.06900014728 -1.961490455e-07
v -0.121577166 0.05973172933 -0.01255345624
v 0.0562001802 -0.06899984926 -3.107532507e-07
v -0.1129801348 0.05799963325 0.01953232847
v -0.02301256359 0.0579996258 0.08584793657
v -0.06000002101 -0.02999980375 -0.09600004554
v -0.08954170346 0.05973158404 0.0497983098
v 0.1004598886 0.05800012127 0.03895350918
v 0.118837826 0.05973238498 -0.0198670011
v 0.07217881829 -0.05941424891 0.0648323074
v 0.09967199713 -0.05973187834 0.03833727911
v -0.1055281907 0.05973183736 -0.03145077452
v -0.05863448232 0.05993148312 0.07198768109
v -0.07780408114 -0.05993232131 0.05957245827
v 0.007708631456 -0.0580003038 0.08770818263
f 23 63 17
f 2 43 28
f 48 10 4
f 55 15 12
f 50 29 65
f 96 46 3
f 86 46 3
f 86 62 3
f 86 62 25
f 49 55 12
f 49 55 25
f 51 96 3
f 57 21 89
f 60 80 39
f 60 10 4
f 60 50 4
f 64 60 10
f 64 60 39
f 64 39 5
f 53 48 10
f 53 48 26
f 32 22 71
f 32 63 17
f 32 71 7
f 32 63 7
f 45 26 11
f 45 53 26
f 6 71 7
f 6 45 61
f 40 76 1
f 40 57 21
f 58 40 1
f 58 40 21
f 31 77 89
f 31 21 89
f 31 58 21
f 94 55 15
f 94 65 28
f 94 62 28
f 94 55 25
f 94 62 25
f 74 29 20
f 83 48 26
f 83 79 26
f 83 48 4
f 83 50 4
f 85 29 20
f 85 50 29
f 37 65 28
f 37 79 28
f 37 50 65
f 37 83 50
f 37 83 79
f 18 2 28
f 18 79 28
f 18 72 11
f 68 96 46
f 19 49 25
f 19 86 25
f 19 86 46
f 19 68 46
f 81 49 12
f 81 19 49
f 81 68 5
f 81 19 68
f 30 68 5
f 27 51 70
f 27 35 70
f 27 35 66
f 8 51 70
f 8 51 96
f 8 68 96
f 73 62 3
f 73 51 3
f 73 27 51
f 73 27 43
f 73 43 28
f 73 62 28
f 14 35 66
f 14 77 89
f 14 57 89
f 67 35 70
f 67 8 70
f 67 30 68
f 67 8 68
f 44 80 20
f 44 60 80
f 44 85 20
f 44 60 50
f 44 85 50
f 82 64 5
f 82 64 23
f 82 23 17
f 82 30 5
f 33 64 23
f 33 23 63
f 33 64 10
f 33 53 10
f 33 63 7
f 33 53 7
f 59 47 34
f 87 6 7
f 87 6 45
f 87 53 7
f 87 45 53
f 13 72 11
f 13 45 11
f 13 45 61
f 13 59 61
f 13 72 34
f 13 59 34
f 36 40 57
f 75 41 22
f 75 41 1
f 75 58 1
f 92 31 77
f 92 58 38
f 92 31 58
f 88 94 15
f 88 94 65
f 88 74 15
f 88 29 65
f 88 74 29
f 54 15 12
f 54 74 15
f 54 80 20
f 54 74 20
f 24 72 34
f 24 18 72
f 24 18 2
f 93 79 26
f 93 18 79
f 93 26 11
f 93 18 11
f 95 80 39
f 95 39 5
f 95 81 5
f 95 81 12
f 95 54 12
f 95 54 80
f 52 30 38
f 52 75 22
f 52 58 38
f 52 75 58
f 16 14 77
f 16 92 77
f 69 14 57
f 69 27 43
f 69 27 66
f 69 14 66
f 69 36 43
f 69 36 57
f 84 82 17
f 84 82 30
f 84 52 30
f 9 47 41
f 9 76 1
f 9 41 1
f 9 40 76
f 42 47 41
f 42 59 47
f 42 41 22
f 42 22 71
f 42 6 71
f 42 6 61
f 42 59 61
f 56 2 43
f 56 36 43
f 56 24 2
f 56 36 40
f 56 24 34
f 91 14 35
f 91 16 14
f 91 67 35
f 91 30 38
f 91 67 30
f 91 92 38
f 91 16 92
f 78 84 17
f 78 84 52
f 78 52 22
f 78 32 17
f 78 32 22
f 90 9 40
f 90 56 40
f 90 56 34
f 90 47 34
f 90 9 47
