# Generated by scripts.build_simple_convex_collision
v 0.03443678841 -0.02316314727 -0.01100999955
v 0.01673289947 0.01755732484 1.791500281e-11
v 0.005232412368 -0.002936303383 0.0234999992
v -0.04044976085 -0.07684069127 0.01099999994
v -0.01354935393 -0.103166908 -0.01150000002
v 0.005232412368 -0.002936303383 -0.0234999992
v 0.02085858583 -0.0788204968 0.01252999995
v -0.01509979833 -0.1026444063 0.01400000043
v -0.033739537 -0.07601755112 -0.01799999923
v 0.03257152811 -0.003808005247 0.01217
v 0.0147500271 -0.0907375291 -0.0120000001
v -0.03515113145 -0.0925687477 -0.008999999613
v 0.03257152811 -0.003808005247 -0.01217
v -0.03394575045 -0.09406048059 0.01350000035
v 0.01336448081 0.01155487169 0.01662000082
v 0.01336448081 0.01155487169 -0.01662000082
v -0.03822293505 -0.06603555381 -0.01150000002
v 0.03289894387 -0.04247586802 0.01152000017
v 0.0128671471 -0.09361442924 0.004040000029
v -0.005820829421 -0.09472400695 -0.01799999923
v 0.02901336551 -0.05973188579 -0.01152000017
v -0.02497168444 -0.09311886877 -0.01799999923
v 0.009713102132 0.01526515093 0.003980000038
v 0.002405210631 -0.09752044082 0.01350000035
v 0.002633597935 0.002649622271 -0.0181499999
v -0.03720289841 -0.06395898014 0.01350000035
v -0.04025336727 -0.07989447564 -0.01150000002
v 0.002633597935 0.002649622271 0.0181499999
v -0.02685154602 -0.09981745481 -0.01150000002
v -0.03979942948 -0.07946693152 0.01400000043
v -0.02546718903 -0.100536406 0.01350000035
v 0.008788659237 0.01361781172 -0.008980000392
v 0.01137761585 0.003927537706 -0.02170999907
v 0.01760163158 0.0150186019 0.008990000002
v 0.01760163158 0.0150186019 -0.008990000002
v 0.01137761585 0.003927537706 0.02171000093
v -0.002806755016 -0.1007130221 -0.01150000002
v -0.007142801769 -0.1022805795 0.01350000035
v 0.02847875655 -0.06169786677 0.01099999994
v 0.0124984188 -0.09374716133 -0.01235000044
v 0.007205408998 0.01079649292 0.01322000008
v 0.003977908287 -0.08507332206 -0.01799999923
v -0.03830700368 -0.08683660626 -0.01161000039
v 0.03224601969 -0.04049396887 -0.01272999961
v 0.03436811268 -0.02281247824 0.01152000017
v -0.0382348448 -0.08727706224 0.01350000035
v -0.03156951815 -0.08570332825 -0.01799999923
v -0.01560403407 -0.09640067816 -0.01799999923
v -0.03994167969 -0.07150286436 0.01350000035
v 0.009633477777 0.004906302784 -0.02170999907
v 0.01585749164 0.01599736698 -0.008990000002
v 0.01585749164 0.01599736698 0.008990000002
v 0.009633477777 0.004906302784 0.02171000093
v 0.02204381116 -0.07801050693 -0.01099999994
v 0.02965116873 -0.05184172094 0.0129300002
v 0.02314566635 -0.07315541804 -0.01272999961
v 0.006206089631 0.009015727788 -0.01494999975
v 0.03323656321 -0.04063083231 -0.01099999994
v -0.04033826664 -0.07423581183 -0.01150000002
v -0.02175699547 -0.1019938663 -0.01150000002
v 0.01837867312 0.01640327461 0.003070000093
v 0.01130664721 -0.06712607294 0.01649999991
v 0.03308518603 -0.03260318935 0.01272999961
v 0.008477682248 -0.001240083016 0.02329999954
f 17 9 6
f 17 9 59
f 44 42 6
f 20 48 6
f 20 42 6
f 45 10 1
f 13 44 1
f 13 10 1
f 22 48 6
f 22 60 48
f 25 17 6
f 25 17 57
f 61 13 10
f 49 59 4
f 49 17 59
f 64 62 55
f 64 62 3
f 7 62 55
f 35 16 51
f 35 16 13
f 35 51 2
f 35 61 2
f 35 61 13
f 5 20 48
f 5 60 48
f 47 9 6
f 47 22 6
f 47 43 22
f 29 22 60
f 29 31 60
f 29 43 12
f 29 43 22
f 29 14 12
f 29 31 14
f 27 9 59
f 27 59 4
f 27 47 9
f 27 47 43
f 50 16 57
f 50 25 57
f 50 25 6
f 32 51 2
f 32 23 2
f 32 16 57
f 32 16 51
f 32 17 57
f 26 23 41
f 26 49 17
f 26 32 17
f 26 32 23
f 26 49 3
f 53 15 41
f 53 64 3
f 34 61 10
f 34 15 10
f 52 23 41
f 52 15 41
f 52 34 15
f 52 23 2
f 52 61 2
f 52 34 61
f 30 14 3
f 30 49 3
f 30 49 4
f 63 18 55
f 63 18 45
f 63 64 55
f 63 45 10
f 63 64 10
f 24 19 38
f 24 7 19
f 24 7 62
f 39 18 55
f 39 7 55
f 56 44 42
f 40 20 42
f 40 56 42
f 40 56 11
f 40 11 19
f 54 7 19
f 54 11 19
f 54 56 11
f 54 39 7
f 8 62 3
f 8 14 3
f 8 31 14
f 8 5 38
f 8 24 38
f 8 24 62
f 8 5 60
f 8 31 60
f 33 16 13
f 33 50 16
f 33 13 44
f 33 44 6
f 33 50 6
f 28 26 3
f 28 26 41
f 28 53 3
f 28 53 41
f 36 64 10
f 36 53 64
f 36 15 10
f 36 53 15
f 46 30 14
f 46 14 12
f 46 43 12
f 46 27 43
f 46 27 4
f 46 30 4
f 58 44 1
f 58 45 1
f 58 18 45
f 37 5 20
f 37 40 20
f 37 5 38
f 37 19 38
f 37 40 19
f 21 54 56
f 21 56 44
f 21 58 44
f 21 54 39
f 21 39 18
f 21 58 18
