# Generated by scripts.build_simple_convex_collision
v 0.04131793976 -0.07666389644 0.009999999776
v -0.01586083323 0.01804671623 2.877919963e-18
v -0.006104485132 -0.003425677074 0.0234999992
v -0.0335647054 -0.02267848328 -0.01099999994
v 0.01560935378 -0.1026688591 -0.01250000019
v -0.006104485132 -0.003425677074 -0.0234999992
v -0.02024204843 -0.07824745774 0.01234799996
v 0.03460344672 -0.07531543821 -0.01899999939
v 0.01566533558 -0.1021668389 0.01300000027
v -0.03169946373 -0.003318614094 0.01217400003
v -0.01360856649 -0.09007941931 -0.01241420023
v 0.03511319309 -0.09322553128 -0.009999999776
v -0.03182750195 -0.003229813185 -0.01195139997
v 0.03461125866 -0.09380580485 0.01250000019
v 0.03864680976 -0.06457678229 -0.01250000019
v -0.01249241456 0.01204426307 -0.0166170001
v -0.01249241456 0.01204426307 0.0166170001
v -0.03202689067 -0.04198645428 0.01151760016
v -0.01199508086 -0.09312503785 0.004036089871
v 0.005093018059 -0.09342522174 -0.01899999939
v -0.0004622809356 0.0008237749571 0.01847589947
v -0.02814129926 -0.0592424944 -0.01151760016
v 0.02601995692 -0.09251006693 -0.01899999939
v -0.001761541935 0.003139030887 -0.01814639941
v 0.04091726243 -0.08079657704 -0.01250000019
v -0.009029889479 0.01609107293 0.001337629976
v 0.03822330385 -0.06374480575 0.01250000019
v 0.0003968773817 -0.09841015935 0.01250000019
v 0.02653066628 -0.09995348006 -0.01250000019
v 0.0406367071 -0.07928235829 0.01300000027
v 0.004546012264 -0.1006068736 -0.01250000019
v 0.0260569416 -0.1001814827 0.01250000019
v -0.006333343219 0.01128588431 0.01321990043
v -0.01672956534 0.01550799329 0.008993060328
v -0.008761391975 0.005395659246 -0.02171120048
v -0.008761391975 0.005395659246 0.02171120048
v -0.01672956534 0.01550799329 -0.008993060328
v -0.007200235035 0.01283066813 -0.01121519972
v -0.003792570904 -0.082927607 -0.01899999939
v -0.01162635349 -0.09325776994 -0.01234799996
v 0.01468441356 -0.09597999603 -0.01899999939
v -0.03356418386 -0.02232283913 0.01099999994
v -0.02754176967 -0.06118786708 0.01151760016
v 0.03253772482 -0.08502399176 -0.01899999939
v 0.03898004815 -0.08707341552 0.01250000019
v 0.007713210769 -0.1017091125 0.01250000019
v -0.03137395531 -0.04000457749 -0.01273200009
v -0.02117174491 -0.07752111554 -0.01099999994
v -0.01498542633 0.01648675837 0.008993060328
v 0.04106649011 -0.0725068301 -0.01250000019
v -0.01498542633 0.01648675837 -0.008993060328
v 0.0408729054 -0.07132050395 0.01250000019
v -0.004360346589 -0.002446912229 -0.0234999992
v 0.03934046254 -0.08605195582 -0.0125692999
v -0.004360346589 -0.002446912229 0.0234999992
v -0.03248339891 -0.02722314 0.01273200009
v -0.03160124645 -0.04497795925 -0.01099999994
v 0.03022551723 -0.09766031802 -0.01256900001
v -0.0275775101 -0.05608149618 0.0129319001
v -0.03278462216 -0.02170764282 -0.01258200034
v -0.01750660688 0.01689266413 -0.003067370038
v -0.02410676144 -0.06816720963 -0.01273200009
v 0.03265925124 -0.06758481264 -0.01899999939
v -0.01310554147 0.009050058201 -0.01864380017
f 60 13 4
f 60 13 6
f 37 16 13
f 35 13 6
f 38 35 24
f 38 35 16
f 23 41 6
f 63 8 50
f 47 60 6
f 47 39 6
f 47 60 4
f 45 30 1
f 27 21 55
f 43 7 59
f 43 7 48
f 20 40 39
f 20 41 6
f 20 39 6
f 11 40 39
f 61 37 13
f 61 34 2
f 64 16 13
f 64 35 13
f 64 35 16
f 53 35 6
f 53 35 24
f 53 63 8
f 53 23 6
f 51 37 16
f 51 38 16
f 51 61 2
f 51 61 37
f 51 26 2
f 51 26 38
f 9 5 46
f 9 28 46
f 31 5 46
f 31 20 40
f 31 5 41
f 31 20 41
f 15 63 50
f 15 53 24
f 15 53 63
f 15 38 24
f 15 26 38
f 15 27 26
f 25 8 50
f 25 50 1
f 25 45 1
f 25 45 54
f 36 21 55
f 10 17 34
f 10 36 17
f 10 61 13
f 10 61 34
f 49 17 34
f 49 34 2
f 49 26 2
f 62 47 39
f 62 11 48
f 62 11 39
f 12 54 58
f 12 45 54
f 52 30 55
f 52 27 55
f 52 30 1
f 52 50 1
f 52 15 50
f 52 15 27
f 33 27 21
f 33 27 26
f 33 36 21
f 33 36 17
f 33 49 26
f 33 49 17
f 3 28 7
f 3 7 59
f 3 9 55
f 3 9 28
f 3 36 55
f 3 10 36
f 19 28 7
f 19 11 40
f 19 31 40
f 19 7 48
f 19 11 48
f 19 28 46
f 19 31 46
f 44 53 8
f 44 53 23
f 44 25 8
f 44 25 54
f 44 23 58
f 44 54 58
f 29 23 58
f 29 5 41
f 29 23 41
f 32 29 58
f 32 9 55
f 32 9 5
f 32 29 5
f 42 13 4
f 42 10 13
f 22 62 47
f 22 43 48
f 22 62 48
f 14 12 58
f 14 32 58
f 14 12 45
f 14 32 55
f 14 30 55
f 14 45 30
f 56 3 10
f 56 42 10
f 56 3 59
f 57 22 47
f 57 22 43
f 57 47 4
f 18 56 42
f 18 57 43
f 18 43 59
f 18 56 59
f 18 42 4
f 18 57 4
