# Generated by scripts.build_simple_convex_collision
v 0.04044976085 -0.07684069127 -0.01350000035
v -0.01673289947 0.01755732484 0
v -0.006976550445 -0.003915068693 0.0234999992
v -0.03443678841 -0.02316314727 0.01100999955
v 0.01354935393 -0.1031669155 -0.01099999994
v -0.006976550445 -0.003915068693 -0.0234999992
v 0.02939043939 -0.08906510472 0.01799999923
v -0.0124984188 -0.09374716133 0.01235000044
v -0.02792035043 -0.0615208447 -0.01240999997
v -0.03266747668 -0.003741445718 -0.0120000001
v 0.03822293505 -0.06603555381 0.01150000002
v 0.01632120088 -0.1030636057 0.01150000002
v -0.03267243505 -0.003737921827 0.0120000001
v 0.0320837684 -0.09599418193 -0.01350000035
v -0.004430736881 -0.09575883299 -0.01350000035
v -0.01336447988 0.01155487169 -0.01662000082
v -0.01336447988 0.01155487169 0.01662000082
v 0.03852217644 -0.0865932703 0.01150000002
v -0.02901336551 -0.05973188579 0.01152000017
v -0.001334336237 0.0003343651188 -0.01847999915
v -0.002633597702 0.002649621805 0.0181499999
v 0.009621541016 -0.09599088132 0.01799999923
v -0.02177226171 -0.0783039555 -0.01168000046
v 0.02895130962 -0.09851527959 0.01150000002
v -0.009901954792 0.01560168155 0.001339999959
v -0.03401439637 -0.03267258778 -0.01152000017
v 0.03320313618 -0.07204734534 0.01799999923
v 0.03720289841 -0.06395898759 -0.01350000035
v -0.01320927683 -0.09340771288 -0.003680000082
v 0.01246610936 -0.1026275307 -0.01400000043
v -0.007205408532 0.01079649292 -0.01322000008
v 0.02299349383 -0.101579085 -0.01350000035
v 0.005380954128 -0.1017461196 0.01150000002
v 0.0382348448 -0.08727706969 -0.01350000035
v -0.01760163158 0.0150186019 0.008990000002
v -0.009633476846 0.004906302318 -0.02170999907
v -0.009633476846 0.004906302318 0.02170999907
v 0.04044729471 -0.07706740499 0.01150000002
v -0.01760163158 0.0150186019 -0.008990000002
v -0.004736137576 -0.08321642876 0.01799999923
v -0.008072300814 0.01234127674 0.01121999975
v 0.004586745985 -0.1014604419 -0.01350000035
v 0.01954198442 -0.09566396475 0.01799999923
v -0.0328184925 -0.03566985577 0.01272999961
v -0.02198225819 -0.07798124105 0.01152000017
v -0.01585749164 0.01599736698 -0.008990000002
v -0.005232411902 -0.002936303848 0.0234999992
v -0.01585749164 0.01599736698 0.008990000002
v 0.03346576169 -0.08001445979 0.01799999923
v -0.005232411902 -0.002936303848 -0.0234999992
v -0.03212439269 -0.04735070467 -0.01099999994
v -0.03247331083 -0.04546735063 0.01099999994
v -0.03432653472 -0.01787657849 -0.01099999994
v 0.03515113145 -0.0925687477 0.008999999613
v -0.01837867312 0.01640327275 -0.003070000093
v -0.00933940988 0.01459923852 -0.006550000049
v -0.033436317 -0.02281511202 -0.01272999961
v 0.02175699547 -0.1019938663 0.01150000002
v 0.00078890851 -0.09146238118 0.01799999923
v 0.03994167969 -0.07150286436 -0.01350000035
v -0.02663802542 -0.06409077346 0.01272999961
v -0.01397760678 0.008560666814 -0.01864000037
v -0.01397760678 0.008560666814 0.01864000037
v -0.02003556117 -0.07885183394 -0.01291999966
f 44 13 4
f 44 13 3
f 35 17 13
f 37 13 3
f 43 22 3
f 43 12 22
f 43 7 24
f 41 37 21
f 41 37 17
f 41 11 21
f 41 25 11
f 28 25 11
f 52 44 4
f 61 8 45
f 61 8 40
f 61 44 3
f 61 40 3
f 23 64 9
f 23 15 64
f 59 8 22
f 59 8 40
f 59 22 3
f 59 40 3
f 63 17 13
f 63 37 13
f 63 37 17
f 47 37 3
f 47 37 21
f 47 49 27
f 47 11 21
f 47 11 27
f 47 49 7
f 47 43 3
f 47 43 7
f 34 50 1
f 34 14 50
f 33 8 22
f 33 12 22
f 33 8 42
f 5 33 42
f 5 33 12
f 58 43 24
f 58 43 12
f 38 11 27
f 38 49 27
f 48 35 17
f 48 41 17
f 48 35 2
f 48 25 2
f 48 41 25
f 60 28 11
f 60 38 1
f 60 38 11
f 60 50 1
f 60 28 50
f 20 28 50
f 55 35 2
f 55 35 13
f 36 16 62
f 36 20 50
f 46 16 39
f 46 55 2
f 46 55 39
f 53 13 4
f 19 52 44
f 19 61 44
f 19 61 45
f 19 23 9
f 19 23 45
f 6 15 64
f 6 64 9
f 6 57 9
f 6 36 50
f 29 23 15
f 29 8 42
f 29 15 42
f 29 8 45
f 29 23 45
f 30 5 42
f 30 15 42
f 30 6 15
f 30 14 50
f 30 6 50
f 32 5 12
f 32 58 12
f 32 30 14
f 32 30 5
f 32 14 24
f 32 58 24
f 54 14 24
f 54 34 14
f 18 49 7
f 18 38 49
f 18 7 24
f 18 54 24
f 18 54 34
f 18 34 1
f 18 38 1
f 31 20 28
f 31 46 16
f 31 36 16
f 31 36 20
f 10 36 62
f 10 53 57
f 10 6 57
f 10 6 36
f 10 16 62
f 10 16 39
f 10 55 39
f 10 55 13
f 10 53 13
f 51 19 9
f 51 19 52
f 56 28 25
f 56 31 28
f 56 31 46
f 56 25 2
f 56 46 2
f 26 57 9
f 26 51 9
f 26 53 57
f 26 53 4
f 26 52 4
f 26 51 52
