# Generated by scripts.build_simple_convex_collision
v 0.03461118788 -0.02326574177 0.01099999994
v 0.01690731756 0.01745945588 9.639858356e-12
v 0.005406829529 -0.003034171183 0.0234999992
v -0.04027145356 -0.0772511512 -0.01250000019
v -0.01456287038 -0.1032561138 0.01250000019
v 0.005406829529 -0.003034171183 -0.0234999992
v 0.02103300393 -0.07891836762 -0.01253310032
v -0.03355696425 -0.07590270042 0.01899999939
v -0.0146350665 -0.1032537892 -0.01250000019
v 0.0327459462 -0.003905873047 -0.01217400003
v 0.01743894443 -0.08664599806 0.0120000001
v -0.03406671062 -0.09381278604 0.009999999776
v 0.03287398443 -0.003817072138 0.01195139997
v -0.03760032728 -0.0651640445 0.01250000019
v 0.01353889797 0.01145700365 0.0166170001
v 0.01353889797 0.01145700365 -0.0166170001
v -0.03168006241 -0.09630465508 -0.01250000019
v 0.01304156426 -0.09371229261 -0.004036089871
v -0.004046535119 -0.09401248395 0.01899999939
v 0.03307337314 -0.04257371277 -0.01151760016
v 0.008963027038 0.01351985708 -0.008975869976
v -0.02656808309 -0.09188071638 0.01899999939
v -0.03987077624 -0.0813838318 0.01250000019
v 0.005269633606 0.006938306615 0.01636400074
v 0.03050126322 -0.05511555448 0.01151760016
v 0.01267283596 -0.0938450247 0.01234799996
v 0.0006496057613 -0.09899741411 -0.01250000019
v -0.03717682138 -0.06433206052 -0.01250000019
v -0.02548418194 -0.1005407348 0.01250000019
v 0.002808025107 0.002551771933 -0.01814639941
v 0.009513827041 0.01450137049 0.00654886011
v 0.01155201346 0.003829635214 -0.02171120048
v -0.03793356195 -0.08766067028 -0.01250000019
v 0.01777604781 0.01492073387 0.008993060328
v 0.01777604781 0.01492073387 -0.008993060328
v 0.01155201346 0.003829635214 0.02171120048
v -0.01564169489 -0.09647963941 0.01899999939
v -0.006166473962 -0.1021517888 0.01250000019
v 0.004839053843 -0.08351486921 0.01899999939
v -0.02252461202 -0.1017819941 -0.01250000019
v 0.028588254 -0.06177512556 -0.01151760016
v 0.0345425494 -0.02291030996 -0.01151760016
v 0.03299290314 -0.0357677415 0.01273200009
v -0.04002000764 -0.07309409231 0.01250000019
v -0.03829398006 -0.08663921803 0.0125692999
v 0.02423865348 -0.07364836335 0.01099999994
v 0.00980787538 0.004808400292 -0.02171120048
v -0.006666727364 -0.1022963673 -0.01250000019
v 0.01603190973 0.01589949988 -0.008993060328
v 0.00980787538 0.004808400292 0.02171120048
v 0.01603190973 0.01589949988 0.008993060328
v -0.03229496256 -0.08377363533 0.01899999939
v 0.001508764108 0.0002365160035 0.01847589947
v 0.01007637195 0.01550381444 -0.001337629976
v 0.0334109813 -0.04072869942 0.01099999994
v -0.02917903475 -0.09824757278 0.01256900001
v 0.006380507257 0.008917859755 -0.01494830009
v 0.0114810653 -0.06722393632 -0.01649999991
v 0.030843243 -0.04716751724 -0.0129319001
v -0.03982642293 -0.07190775871 -0.01250000019
v 0.01855308935 0.01630540565 0.003067370038
v 0.02332008258 -0.07325328887 0.01273200009
v 0.008652085438 -0.00133797701 0.02329899929
v -0.03161276877 -0.0681720674 0.01899999939
f 63 39 3
f 19 37 3
f 19 39 3
f 58 6 59
f 43 63 39
f 43 13 1
f 43 63 13
f 50 63 3
f 50 53 3
f 50 53 24
f 42 13 1
f 42 10 13
f 42 20 59
f 22 37 3
f 22 29 37
f 64 8 3
f 64 8 44
f 7 58 59
f 26 19 39
f 26 11 39
f 60 44 4
f 60 6 4
f 60 28 6
f 14 64 44
f 14 60 44
f 14 60 28
f 14 53 24
f 14 53 3
f 14 64 3
f 54 14 28
f 30 28 6
f 30 57 28
f 30 47 6
f 30 47 57
f 62 11 39
f 62 43 39
f 36 63 13
f 36 50 63
f 49 54 2
f 32 47 6
f 32 6 59
f 32 42 59
f 32 42 10
f 33 6 4
f 33 17 6
f 33 17 12
f 33 45 12
f 40 29 17
f 40 17 6
f 52 8 3
f 52 22 3
f 52 45 22
f 23 8 44
f 23 44 4
f 23 52 8
f 23 52 45
f 23 33 4
f 23 33 45
f 56 22 29
f 56 45 22
f 56 45 12
f 56 17 12
f 56 29 17
f 41 20 59
f 41 7 59
f 5 40 29
f 5 29 37
f 27 58 48
f 27 7 58
f 18 7 11
f 18 26 11
f 18 27 7
f 18 27 48
f 15 50 24
f 15 36 50
f 15 36 13
f 31 14 24
f 31 54 14
f 31 15 24
f 31 15 51
f 31 54 2
f 31 51 2
f 61 51 2
f 61 10 13
f 16 47 57
f 16 32 47
f 16 32 10
f 21 49 54
f 21 57 28
f 21 54 28
f 21 16 57
f 21 16 49
f 9 58 6
f 9 40 6
f 9 58 48
f 9 5 48
f 9 5 40
f 25 62 43
f 25 41 20
f 38 26 19
f 38 19 37
f 38 5 37
f 38 5 48
f 38 18 48
f 38 18 26
f 34 15 13
f 34 15 51
f 34 61 13
f 34 61 51
f 35 16 10
f 35 16 49
f 35 49 2
f 35 61 2
f 35 61 10
f 46 25 62
f 46 25 41
f 46 62 11
f 46 7 11
f 46 41 7
f 55 25 43
f 55 25 20
f 55 43 1
f 55 42 1
f 55 42 20
